<?xml version="1.0" encoding="UTF-8"?>
<!DOCTYPE svg PUBLIC "-//W3C//DTD SVG 1.1//EN" "http://www.w3.org/Graphics/SVG/1.1/DTD/svg11.dtd">
<svg xmlns="http://www.w3.org/2000/svg" version="1.1" width="500px" height="520px" viewBox="0 0 500 520" style="shape-rendering:geometricPrecision; text-rendering:geometricPrecision; image-rendering:optimizeQuality; fill-rule:evenodd; clip-rule:evenodd" xmlns:xlink="http://www.w3.org/1999/xlink">
<g><path style="opacity:1" fill="#f8f8f8" d="M 39.5,193.5 C 68.6715,193.831 97.6715,193.498 126.5,192.5C 127.716,190.549 129.382,189.049 131.5,188C 130.29,186.961 129.29,185.794 128.5,184.5C 128.5,182.167 128.5,179.833 128.5,177.5C 129.681,175.933 131.347,175.099 133.5,175C 145.167,174.333 156.833,174.333 168.5,175C 170.286,175.785 171.786,176.951 173,178.5C 173.667,191.167 173.667,203.833 173,216.5C 169.387,222.75 165.22,223.083 160.5,217.5C 158.517,218.982 156.684,220.649 155,222.5C 154.667,250.833 154.333,279.167 154,307.5C 153.261,310.573 151.428,312.74 148.5,314C 111.162,314.833 73.8289,314.667 36.5,313.5C 35.1387,311.972 33.972,310.305 33,308.5C 32.3333,272.167 32.3333,235.833 33,199.5C 33.7277,195.939 35.8943,193.939 39.5,193.5 Z M 66.5,199.5 C 84.1647,199.23 101.498,199.563 118.5,200.5C 117.5,201.167 116.5,201.833 115.5,202.5C 114.673,201.561 114.006,201.895 113.5,203.5C 112.167,203.833 112.167,204.167 113.5,204.5C 106.825,210.825 99.8254,217.492 92.5,224.5C 92.1034,223.475 91.4368,223.308 90.5,224C 89.2264,224.977 89.2264,225.811 90.5,226.5C 90.5,226.833 90.5,227.167 90.5,227.5C 87.9108,228.419 85.9108,230.086 84.5,232.5C 83.1667,233.167 82.1667,234.167 81.5,235.5C 76.5603,238.77 72.2269,242.77 68.5,247.5C 66.2512,248.08 64.5846,249.413 63.5,251.5C 58.5,256.5 53.5,261.5 48.5,266.5C 46.5,266.5 45.5,267.5 45.5,269.5C 43.3005,270.862 41.3005,272.529 39.5,274.5C 39.1707,259.99 39.5041,245.657 40.5,231.5C 40.8333,232.167 41.1667,232.833 41.5,233.5C 42.7836,234.557 44.1169,235.557 45.5,236.5C 45.0618,236.435 44.7284,236.601 44.5,237C 45.7893,238.802 47.4559,239.969 49.5,240.5C 50.8333,241.167 51.8333,242.167 52.5,243.5C 52.5,244.833 53.1667,245.5 54.5,245.5C 56.1392,246.473 57.4726,247.806 58.5,249.5C 59.5477,251.933 60.2144,251.933 60.5,249.5C 70.6646,240.835 80.3312,231.668 89.5,222C 84.8855,216.707 79.8855,211.874 74.5,207.5C 74.1667,205.167 72.8333,203.833 70.5,203.5C 70.5,203.167 70.5,202.833 70.5,202.5C 71.3764,202.631 72.0431,202.298 72.5,201.5C 71.3864,200.224 70.3864,200.224 69.5,201.5C 68.2905,201.068 67.2905,200.401 66.5,199.5 Z M 146.5,231.5 C 147.761,246.141 147.761,260.807 146.5,275.5C 139.403,269.907 132.736,263.74 126.5,257C 125.552,256.517 124.552,256.351 123.5,256.5C 124.263,255.732 125.263,255.232 126.5,255C 125.874,254.25 125.374,253.416 125,252.5C 124.184,253.823 123.017,254.489 121.5,254.5C 129.533,246.465 137.867,238.798 146.5,231.5 Z M 121.5,254.5 C 121.5,255.833 122.167,256.5 123.5,256.5C 122.5,257.833 121.5,259.167 120.5,260.5C 117.911,261.419 115.911,263.086 114.5,265.5C 114.5,265.833 114.5,266.167 114.5,266.5C 112.251,267.08 110.585,268.413 109.5,270.5C 108.167,270.5 107.5,271.167 107.5,272.5C 104.878,274.782 102.212,277.115 99.5,279.5C 98.9222,278.453 98.2555,278.62 97.5,280C 97.7284,280.399 98.0618,280.565 98.5,280.5C 98.5,281.167 98.1667,281.5 97.5,281.5C 95.7483,281.418 94.7483,282.251 94.5,284C 94.8361,285.03 95.5028,285.53 96.5,285.5C 102.833,292.167 109.167,298.833 115.5,305.5C 116.5,306.167 117.5,306.833 118.5,307.5C 100.5,308.833 82.5,308.833 64.5,307.5C 66.5,305.833 68.5,304.167 70.5,302.5C 70.4894,304.017 69.8228,305.184 68.5,306C 70.1667,306.667 71.8333,306.667 73.5,306C 71.9632,304.89 71.2965,303.39 71.5,301.5C 88.1142,285.889 104.781,270.222 121.5,254.5 Z"/></g>
<g><path style="opacity:0.635" fill="#626262" d="M 128.5,177.5 C 128.5,179.833 128.5,182.167 128.5,184.5C 127.522,184.189 126.855,183.522 126.5,182.5C 127.028,180.664 127.694,178.997 128.5,177.5 Z"/></g>
<g><path style="opacity:0.455" fill="#7a7a7a" d="M 126.5,192.5 C 97.6715,193.498 68.6715,193.831 39.5,193.5C 67.569,192.829 95.7356,192.163 124,191.5C 124.671,192.252 125.504,192.586 126.5,192.5 Z"/></g>
<g><path style="opacity:0.203" fill="#3a3a3a" d="M 118.5,200.5 C 101.498,199.563 84.1647,199.23 66.5,199.5C 83.7592,198.341 101.759,198.174 120.5,199C 119.956,199.717 119.289,200.217 118.5,200.5 Z"/></g>
<g><path style="opacity:0.005" fill="#000000" d="M 69.5,201.5 C 70.3864,200.224 71.3864,200.224 72.5,201.5C 72.0431,202.298 71.3764,202.631 70.5,202.5C 70.5,201.833 70.1667,201.5 69.5,201.5 Z"/></g>
<g><path style="opacity:0.047" fill="#0c0c0c" d="M 115.5,202.5 C 115.158,203.338 114.492,203.672 113.5,203.5C 114.006,201.895 114.673,201.561 115.5,202.5 Z"/></g>
<g><path style="opacity:0.008" fill="#202020" d="M 70.5,203.5 C 72.8333,203.833 74.1667,205.167 74.5,207.5C 72.8333,206.5 71.5,205.167 70.5,203.5 Z"/></g>
<g><path style="opacity:0.737" fill="#b9b9b9" d="M 258.5,223.5 C 274.995,222.338 291.662,222.172 308.5,223C 309.416,223.278 310.082,223.778 310.5,224.5C 293.195,223.556 275.861,223.223 258.5,223.5 Z"/></g>
<g><path style="opacity:0.702" fill="#b4b4b4" d="M 407.5,223.5 C 423.661,222.338 439.995,222.172 456.5,223C 457.737,223.232 458.737,223.732 459.5,224.5C 442.195,223.556 424.861,223.223 407.5,223.5 Z"/></g>
<g><path style="opacity:0.006" fill="#000000" d="M 92.5,224.5 C 91.8333,224.5 91.5,224.833 91.5,225.5C 90.8333,225.5 90.5,225.833 90.5,226.5C 89.2264,225.811 89.2264,224.977 90.5,224C 91.4368,223.308 92.1034,223.475 92.5,224.5 Z"/></g>
<g><path style="opacity:1" fill="#f4f4f4" d="M 242.5,250.5 C 241.566,251.568 241.232,252.901 241.5,254.5C 241.5,254.833 241.5,255.167 241.5,255.5C 240.596,256.209 240.263,257.209 240.5,258.5C 240.5,259.833 240.5,261.167 240.5,262.5C 239.566,263.568 239.232,264.901 239.5,266.5C 238.294,275.542 233.294,281.376 224.5,284C 208.833,284.667 193.167,284.667 177.5,284C 176.833,283 176.167,282 175.5,281C 178.93,263.593 182.096,246.093 185,228.5C 185.295,226.069 186.462,224.236 188.5,223C 204.167,222.333 219.833,222.333 235.5,223C 240.428,224.927 243.594,228.427 245,233.5C 245.038,239.273 244.205,244.939 242.5,250.5 Z M 221.5,257.5 C 220.733,258.172 220.066,259.005 219.5,260C 219.728,260.399 220.062,260.565 220.5,260.5C 220.675,262.621 220.341,264.621 219.5,266.5C 212.32,266.369 205.32,266.369 198.5,266.5C 199.849,257.244 202.016,248.244 205,239.5C 211.587,239.227 217.92,239.56 224,240.5C 222.965,246.054 222.132,251.72 221.5,257.5 Z"/></g>
<g><path style="opacity:1" fill="#f6f6f6" d="M 258.5,223.5 C 275.861,223.223 293.195,223.556 310.5,224.5C 314.282,225.788 316.449,228.455 317,232.5C 317.271,238.55 316.771,244.55 315.5,250.5C 314.596,251.209 314.263,252.209 314.5,253.5C 313.259,259.914 309.592,264.414 303.5,267C 306.646,271.292 308.979,275.959 310.5,281C 310.415,282.107 310.081,283.107 309.5,284C 302.808,284.831 296.142,284.664 289.5,283.5C 286.628,279.09 284.295,274.423 282.5,269.5C 277.5,268.167 272.5,268.167 267.5,269.5C 267.485,274.762 266.152,279.595 263.5,284C 258.167,284.667 252.833,284.667 247.5,284C 246.196,283.196 245.529,282.029 245.5,280.5C 246.837,274.148 248.17,267.815 249.5,261.5C 250.404,260.791 250.737,259.791 250.5,258.5C 251.728,247.406 253.561,236.406 256,225.5C 256.708,224.619 257.542,223.953 258.5,223.5 Z M 296.5,244.5 C 295.79,246.746 295.29,249.08 295,251.5C 294.617,252.056 294.117,252.389 293.5,252.5C 286.167,252.5 278.833,252.5 271.5,252.5C 271.5,251.167 271.5,249.833 271.5,248.5C 272.219,246.236 272.552,243.903 272.5,241.5C 280.228,239.582 288.228,238.915 296.5,239.5C 296.5,241.167 296.5,242.833 296.5,244.5 Z"/></g>
<g><path style="opacity:1" fill="#f4f4f4" d="M 390.5,257.5 C 389.596,258.209 389.263,259.209 389.5,260.5C 389.664,270.681 385.33,278.181 376.5,283C 368.406,284.12 360.24,284.62 352,284.5C 343.76,284.62 335.594,284.12 327.5,283C 321.872,280.244 319.538,275.744 320.5,269.5C 321.849,258.431 323.683,247.431 326,236.5C 328.5,230 333,225.5 339.5,223C 354.5,222.333 369.5,222.333 384.5,223C 390.699,225.367 394.032,229.867 394.5,236.5C 392.907,243.463 391.574,250.463 390.5,257.5 Z M 368.5,266.5 C 358.987,266.406 349.654,266.406 340.5,266.5C 340.5,265.5 340.5,264.5 340.5,263.5C 342.105,262.994 342.439,262.327 341.5,261.5C 342.378,253.875 344.211,246.541 347,239.5C 355.447,239.683 363.78,239.683 372,239.5C 372.5,240 373,240.5 373.5,241C 371.601,249.46 369.935,257.96 368.5,266.5 Z"/></g>
<g><path style="opacity:1" fill="#f5f5f5" d="M 407.5,223.5 C 424.861,223.223 442.195,223.556 459.5,224.5C 464.736,226.672 467.07,230.672 466.5,236.5C 466.415,245.445 464.248,253.779 460,261.5C 456.572,265.268 452.405,267.768 447.5,269C 437.172,269.5 426.839,269.666 416.5,269.5C 416.142,273.509 415.642,277.509 415,281.5C 414.167,282.333 413.333,283.167 412.5,284C 406.916,284.806 401.416,284.639 396,283.5C 395.333,280.167 395.333,276.833 396,273.5C 399.129,257.522 402.129,241.522 405,225.5C 405.708,224.619 406.542,223.953 407.5,223.5 Z M 442.5,252.5 C 434.757,253.13 427.424,252.463 420.5,250.5C 421.13,246.996 421.797,243.496 422.5,240C 430.159,239.5 437.826,239.334 445.5,239.5C 445.664,242.187 445.497,244.854 445,247.5C 444.901,249.653 444.067,251.319 442.5,252.5 Z"/></g>
<g><path style="opacity:0.855" fill="#929292" d="M 90.5,227.5 C 89.0892,229.914 87.0892,231.581 84.5,232.5C 85.9108,230.086 87.9108,228.419 90.5,227.5 Z"/></g>
<g><path style="opacity:0.141" fill="#212121" d="M 45.5,236.5 C 47.1667,237.5 48.5,238.833 49.5,240.5C 47.4559,239.969 45.7893,238.802 44.5,237C 44.7284,236.601 45.0618,236.435 45.5,236.5 Z"/></g>
<g><path style="opacity:0.062" fill="#131313" d="M 38.5,230.5 C 39.4916,230.328 40.1583,230.662 40.5,231.5C 39.5041,245.657 39.1707,259.99 39.5,274.5C 39.1667,274.5 38.8333,274.5 38.5,274.5C 38.5,259.833 38.5,245.167 38.5,230.5 Z"/></g>
<g><path style="opacity:0.278" fill="#464646" d="M 146.5,229.5 C 146.56,228.957 146.893,228.624 147.5,228.5C 148.666,245.157 148.833,261.823 148,278.5C 147.768,277.263 147.268,276.263 146.5,275.5C 147.761,260.807 147.761,246.141 146.5,231.5C 147.833,230.833 147.833,230.167 146.5,229.5 Z"/></g>
<g><path style="opacity:0.7" fill="#b0b0b0" d="M 296.5,244.5 C 296.5,242.833 296.5,241.167 296.5,239.5C 288.228,238.915 280.228,239.582 272.5,241.5C 272.5,240.5 272.5,239.5 272.5,238.5C 280.833,238.5 289.167,238.5 297.5,238.5C 297.795,240.735 297.461,242.735 296.5,244.5 Z"/></g>
<g><path style="opacity:0.569" fill="#575757" d="M 81.5,235.5 C 77.7731,240.23 73.4397,244.23 68.5,247.5C 72.2269,242.77 76.5603,238.77 81.5,235.5 Z"/></g>
<g><path style="opacity:0.008" fill="#171717" d="M 52.5,243.5 C 53.5,243.833 54.1667,244.5 54.5,245.5C 53.1667,245.5 52.5,244.833 52.5,243.5 Z"/></g>
<g><path style="opacity:0.098" fill="#161616" d="M 68.5,247.5 C 67.4154,249.587 65.7488,250.92 63.5,251.5C 64.5846,249.413 66.2512,248.08 68.5,247.5 Z"/></g>
<g><path style="opacity:0.447" fill="#414141" d="M 58.5,249.5 C 59.1667,249.5 59.8333,249.5 60.5,249.5C 60.2144,251.933 59.5477,251.933 58.5,249.5 Z"/></g>
<g><path style="opacity:0.282" fill="#3b3b3b" d="M 315.5,250.5 C 316.815,251.895 316.481,252.895 314.5,253.5C 314.263,252.209 314.596,251.209 315.5,250.5 Z"/></g>
<g><path style="opacity:0.009" fill="#000000" d="M 123.5,256.5 C 122.167,256.5 121.5,255.833 121.5,254.5C 123.017,254.489 124.184,253.823 125,252.5C 125.374,253.416 125.874,254.25 126.5,255C 125.263,255.232 124.263,255.732 123.5,256.5 Z"/></g>
<g><path style="opacity:0.647" fill="#a2a2a2" d="M 271.5,248.5 C 271.5,249.833 271.5,251.167 271.5,252.5C 278.833,252.5 286.167,252.5 293.5,252.5C 286.018,253.492 278.352,253.825 270.5,253.5C 270.216,251.585 270.549,249.919 271.5,248.5 Z"/></g>
<g><path style="opacity:0.645" fill="#a7a7a7" d="M 420.5,250.5 C 427.424,252.463 434.757,253.13 442.5,252.5C 435.018,253.492 427.352,253.825 419.5,253.5C 419.263,252.209 419.596,251.209 420.5,250.5 Z"/></g>
<g><path style="opacity:0.024" fill="#444444" d="M 242.5,250.5 C 242.938,250.435 243.272,250.601 243.5,251C 242.915,252.302 242.249,253.469 241.5,254.5C 241.232,252.901 241.566,251.568 242.5,250.5 Z"/></g>
<g><path style="opacity:0.518" fill="#626262" d="M 241.5,255.5 C 241.414,256.496 241.748,257.329 242.5,258C 241.906,258.464 241.239,258.631 240.5,258.5C 240.263,257.209 240.596,256.209 241.5,255.5 Z"/></g>
<g><path style="opacity:0.365" fill="#494949" d="M 390.5,257.5 C 390.938,257.435 391.272,257.601 391.5,258C 390.934,258.995 390.267,259.828 389.5,260.5C 389.263,259.209 389.596,258.209 390.5,257.5 Z"/></g>
<g><path style="opacity:0.369" fill="#393939" d="M 221.5,257.5 C 221.737,258.791 221.404,259.791 220.5,260.5C 220.062,260.565 219.728,260.399 219.5,260C 220.066,259.005 220.733,258.172 221.5,257.5 Z"/></g>
<g><path style="opacity:0.608" fill="#666666" d="M 250.5,258.5 C 250.737,259.791 250.404,260.791 249.5,261.5C 249.062,261.565 248.728,261.399 248.5,261C 249.066,260.005 249.733,259.172 250.5,258.5 Z"/></g>
<g><path style="opacity:0.165" fill="#2d2d2d" d="M 341.5,261.5 C 342.439,262.327 342.105,262.994 340.5,263.5C 340.328,262.508 340.662,261.842 341.5,261.5 Z"/></g>
<g><path style="opacity:0.6" fill="#636363" d="M 120.5,260.5 C 119.089,262.914 117.089,264.581 114.5,265.5C 115.911,263.086 117.911,261.419 120.5,260.5 Z"/></g>
<g><path style="opacity:0.427" fill="#4b4b4b" d="M 240.5,262.5 C 241.443,264.001 241.109,265.335 239.5,266.5C 239.232,264.901 239.566,263.568 240.5,262.5 Z"/></g>
<g><path style="opacity:0.477" fill="#7b7b7b" d="M 219.5,266.5 C 212.5,267.833 205.5,267.833 198.5,266.5C 205.32,266.369 212.32,266.369 219.5,266.5 Z"/></g>
<g><path style="opacity:0.436" fill="#747474" d="M 368.5,266.5 C 359.167,267.833 349.833,267.833 340.5,266.5C 349.654,266.406 358.987,266.406 368.5,266.5 Z"/></g>
<g><path style="opacity:0.835" fill="#909090" d="M 114.5,266.5 C 113.415,268.587 111.749,269.92 109.5,270.5C 110.585,268.413 112.251,267.08 114.5,266.5 Z"/></g>
<g><path style="opacity:0.059" fill="#0f0f0f" d="M 48.5,266.5 C 47.8333,267.833 46.8333,268.833 45.5,269.5C 45.5,267.5 46.5,266.5 48.5,266.5 Z"/></g>
<g><path style="opacity:0.475" fill="#7d7d7d" d="M 267.5,269.5 C 272.5,268.167 277.5,268.167 282.5,269.5C 277.68,269.697 272.68,269.697 267.5,269.5 Z"/></g>
<g><path style="opacity:0.212" fill="#2a2a2a" d="M 109.5,270.5 C 109.167,271.5 108.5,272.167 107.5,272.5C 107.5,271.167 108.167,270.5 109.5,270.5 Z"/></g>
<g><path style="opacity:0.007" fill="#0c0c0c" d="M 97.5,281.5 C 95.8624,282.705 95.5291,284.038 96.5,285.5C 95.5028,285.53 94.8361,285.03 94.5,284C 94.7483,282.251 95.7483,281.418 97.5,281.5 Z"/></g>
<g><path style="opacity:0.007" fill="#000000" d="M 71.5,301.5 C 71.2965,303.39 71.9632,304.89 73.5,306C 71.8333,306.667 70.1667,306.667 68.5,306C 69.8228,305.184 70.4894,304.017 70.5,302.5C 70.5,301.833 70.8333,301.5 71.5,301.5 Z"/></g>
<g><path style="opacity:0.784" fill="#c7c7c7" d="M 64.5,307.5 C 82.5,308.833 100.5,308.833 118.5,307.5C 119.043,307.56 119.376,307.893 119.5,308.5C 100.833,309.833 82.1667,309.833 63.5,308.5C 63.6236,307.893 63.9569,307.56 64.5,307.5 Z"/></g>
</svg>
