<?xml version="1.0" encoding="UTF-8"?>
<!DOCTYPE svg PUBLIC "-//W3C//DTD SVG 1.1//EN" "http://www.w3.org/Graphics/SVG/1.1/DTD/svg11.dtd">
<svg xmlns="http://www.w3.org/2000/svg" version="1.1" width="666px" height="375px" style="shape-rendering:geometricPrecision; text-rendering:geometricPrecision; image-rendering:optimizeQuality; fill-rule:evenodd; clip-rule:evenodd" xmlns:xlink="http://www.w3.org/1999/xlink">
<g><path style="opacity:0.514" fill="#f8e0b8" d="M 218.5,87.5 C 217.244,87.5386 216.244,87.0386 215.5,86C 196.503,85.5001 177.503,85.3334 158.5,85.5C 159.952,84.6981 161.618,84.1981 163.5,84C 179.833,83.3333 196.167,83.3333 212.5,84C 215.264,84.0058 217.264,85.1725 218.5,87.5 Z"/></g>
<g><path style="opacity:1" fill="#e7a13d" d="M 158.5,85.5 C 177.503,85.3334 196.503,85.5001 215.5,86C 216.244,87.0386 217.244,87.5386 218.5,87.5C 218.5,88.1667 218.5,88.8333 218.5,89.5C 216.742,88.0015 214.909,87.6681 213,88.5C 204.231,87.1813 195.231,86.5146 186,86.5C 177.167,86.6667 168.333,86.8333 159.5,87C 158.295,88.3756 156.962,89.5423 155.5,90.5C 156.075,88.5887 157.075,86.922 158.5,85.5 Z"/></g>
<g><path style="opacity:1" fill="#f8a01e" d="M 218.5,89.5 C 219.966,90.347 220.8,91.6803 221,93.5C 221.5,109.83 221.667,126.163 221.5,142.5C 221.768,144.099 221.434,145.432 220.5,146.5C 218.168,148.487 215.502,149.82 212.5,150.5C 211.167,150.333 209.833,150.167 208.5,150C 207.211,148.198 205.544,147.031 203.5,146.5C 202.167,146.833 200.833,147.167 199.5,147.5C 197.983,147.489 196.816,146.823 196,145.5C 195.667,146.167 195.333,146.833 195,147.5C 192.552,145.309 189.718,143.976 186.5,143.5C 186.5,140.833 186.5,138.167 186.5,135.5C 185.5,135.5 184.5,135.5 183.5,135.5C 183.5,132.833 183.5,130.167 183.5,127.5C 180.856,127.84 178.523,127.173 176.5,125.5C 175.719,126.729 175.219,128.062 175,129.5C 170.538,123.37 165.371,117.87 159.5,113C 160.451,112.282 160.617,111.449 160,110.5C 158.644,109.62 157.144,109.286 155.5,109.5C 157.235,107.765 158.568,105.765 159.5,103.5C 159.253,102.287 158.586,101.62 157.5,101.5C 156.094,101.027 155.427,100.027 155.5,98.5C 155.5,95.8333 155.5,93.1667 155.5,90.5C 156.962,89.5423 158.295,88.3756 159.5,87C 168.333,86.8333 177.167,86.6667 186,86.5C 195.231,86.5146 204.231,87.1813 213,88.5C 214.909,87.6681 216.742,88.0015 218.5,89.5 Z"/></g>
<g><path style="opacity:0.898" fill="#f6da9e" d="M 158.5,85.5 C 157.075,86.922 156.075,88.5887 155.5,90.5C 155.5,93.1667 155.5,95.8333 155.5,98.5C 153.573,95.8632 153.073,92.8632 154,89.5C 154.748,87.249 156.248,85.9156 158.5,85.5 Z"/></g>
<g><path style="opacity:1" fill="#eebe34" d="M 155.5,109.5 C 154.393,111.969 152.393,112.969 149.5,112.5C 108.167,112.5 66.8333,112.5 25.5,112.5C 67.6647,111.667 109.998,111.167 152.5,111C 153.527,110.487 154.527,109.987 155.5,109.5 Z"/></g>
<g><path style="opacity:1" fill="#fcbe13" d="M 25.5,112.5 C 66.8333,112.5 108.167,112.5 149.5,112.5C 147.973,114.939 145.973,116.939 143.5,118.5C 116.661,118.169 89.9948,118.502 63.5,119.5C 63.3505,120.552 63.5172,121.552 64,122.5C 65.5,123.333 66.6667,124.5 67.5,126C 68.448,126.483 69.448,126.649 70.5,126.5C 72.7746,127.111 74.4412,128.445 75.5,130.5C 80.1667,137.167 85.8333,142.833 92.5,147.5C 94.2845,149.948 95.6178,152.615 96.5,155.5C 95.1667,155.5 93.8333,155.5 92.5,155.5C 92.6567,156.873 92.49,158.207 92,159.5C 90.6244,160.705 89.4577,162.038 88.5,163.5C 86.0801,165.92 83.0801,167.087 79.5,167C 81.7823,168.084 82.1157,169.584 80.5,171.5C 80.5,172.167 80.1667,172.5 79.5,172.5C 78.1667,172.5 76.8333,172.5 75.5,172.5C 75.6495,173.552 75.4828,174.552 75,175.5C 69.1126,181.387 63.2792,187.221 57.5,193C 55.4546,193.49 53.4546,193.323 51.5,192.5C 50.1667,192.5 49.5,191.833 49.5,190.5C 46.1667,185.167 41.8333,180.833 36.5,177.5C 35.5,174.5 33.5,172.5 30.5,171.5C 29.9936,167.325 27.6603,165.325 23.5,165.5C 23.167,188.176 23.5003,210.843 24.5,233.5C 28.521,230.146 32.1877,226.479 35.5,222.5C 45.1002,214.569 54.1002,205.902 62.5,196.5C 62.5,195.833 62.8333,195.5 63.5,195.5C 66.0094,194.079 68.3428,192.412 70.5,190.5C 70.2914,191.922 69.7914,193.255 69,194.5C 66.1563,196.159 63.6563,198.159 61.5,200.5C 55.7152,204.558 52.5486,209.891 52,216.5C 47.0308,213.107 44.8642,214.441 45.5,220.5C 40.4612,220.451 40.2945,221.118 45,222.5C 45.6667,224.833 45.6667,227.167 45,229.5C 42.7152,231.907 40.5486,234.407 38.5,237C 36.0288,237.706 33.6954,237.373 31.5,236C 37.7611,234.068 41.0944,229.901 41.5,223.5C 40.325,223.281 39.325,223.614 38.5,224.5C 37.9067,226.382 37.2401,228.215 36.5,230C 33.5544,230.806 30.8877,232.139 28.5,234C 26.26,234.977 23.9267,235.477 21.5,235.5C 20.9965,231.665 19.9965,231.665 18.5,235.5C 17.8182,234.757 17.1515,234.091 16.5,233.5C 16.5,196.167 16.5,158.833 16.5,121.5C 18.1667,117.167 21.1667,114.167 25.5,112.5 Z"/></g>
<g><path style="opacity:0.974" fill="#ecbf3d" d="M 63.5,119.5 C 89.9948,118.502 116.661,118.169 143.5,118.5C 143.672,119.492 143.338,120.158 142.5,120.5C 116.339,119.502 90.0053,119.169 63.5,119.5 Z"/></g>
<g><path style="opacity:0.294" fill="#feeebf" d="M 63.5,119.5 C 90.0053,119.169 116.339,119.502 142.5,120.5C 138.82,125.179 134.486,129.179 129.5,132.5C 132.941,128.556 136.608,124.723 140.5,121C 140,120.833 139.5,120.667 139,120.5C 116.979,121.713 94.8128,121.713 72.5,120.5C 71.8333,121.167 71.1667,121.833 70.5,122.5C 69.549,121.674 68.549,121.508 67.5,122C 69.1412,123.129 70.1412,124.629 70.5,126.5C 69.448,126.649 68.448,126.483 67.5,126C 66.6667,124.5 65.5,123.333 64,122.5C 63.5172,121.552 63.3505,120.552 63.5,119.5 Z"/></g>
<g><path style="opacity:0.056" fill="#fef9d4" d="M 218.5,87.5 C 220.61,88.4525 221.777,90.1192 222,92.5C 222.828,109.338 222.662,126.005 221.5,142.5C 221.667,126.163 221.5,109.83 221,93.5C 220.8,91.6803 219.966,90.347 218.5,89.5C 218.5,88.8333 218.5,88.1667 218.5,87.5 Z"/></g>
<g><path style="opacity:1" fill="#faa61a" d="M 155.5,109.5 C 157.144,109.286 158.644,109.62 160,110.5C 160.617,111.449 160.451,112.282 159.5,113C 165.371,117.87 170.538,123.37 175,129.5C 175.219,128.062 175.719,126.729 176.5,125.5C 178.523,127.173 180.856,127.84 183.5,127.5C 183.5,130.167 183.5,132.833 183.5,135.5C 184.5,135.5 185.5,135.5 186.5,135.5C 186.5,138.167 186.5,140.833 186.5,143.5C 189.718,143.976 192.552,145.309 195,147.5C 195.333,146.833 195.667,146.167 196,145.5C 196.816,146.823 197.983,147.489 199.5,147.5C 197.886,149.456 196.219,151.456 194.5,153.5C 193.167,153.5 192.5,154.167 192.5,155.5C 191.833,155.5 191.5,155.833 191.5,156.5C 188.418,158.372 185.751,160.705 183.5,163.5C 179.133,167.868 174.467,171.868 169.5,175.5C 170.013,171.981 172.013,169.647 175.5,168.5C 172.719,167.841 170.386,168.841 168.5,171.5C 166.717,170.652 166.217,169.319 167,167.5C 170.321,166.029 173.821,165.363 177.5,165.5C 177.297,163.61 177.963,162.11 179.5,161C 178.004,160.493 176.837,160.993 176,162.5C 174.984,161.366 174.317,161.699 174,163.5C 171.865,161.722 169.365,161.055 166.5,161.5C 165.365,165.825 163.365,166.325 160.5,163C 161.685,160.222 160.685,158.722 157.5,158.5C 157.785,156.712 157.452,155.045 156.5,153.5C 152.896,150.921 150.562,147.588 149.5,143.5C 146.881,143.768 144.381,143.435 142,142.5C 141.167,145 140,145.167 138.5,143C 140.215,142.223 141.215,140.89 141.5,139C 139.84,137.158 138.84,134.991 138.5,132.5C 135.023,134.006 131.356,135.672 127.5,137.5C 127.893,135.716 128.559,134.05 129.5,132.5C 134.486,129.179 138.82,125.179 142.5,120.5C 143.338,120.158 143.672,119.492 143.5,118.5C 145.973,116.939 147.973,114.939 149.5,112.5C 152.393,112.969 154.393,111.969 155.5,109.5 Z"/></g>
<g><path style="opacity:0.306" fill="#ffeeb0" d="M 75.5,130.5 C 81.5,135.833 87.1667,141.5 92.5,147.5C 85.8333,142.833 80.1667,137.167 75.5,130.5 Z"/></g>
<g><path style="opacity:1" fill="#fbac19" d="M 169.5,175.5 C 165.767,179.227 162.434,183.227 159.5,187.5C 156.944,188.543 154.777,190.21 153,192.5C 151.612,191.446 150.112,191.28 148.5,192C 149.056,192.383 149.389,192.883 149.5,193.5C 147.616,193.288 146.283,192.288 145.5,190.5C 146.833,189.38 147.333,188.047 147,186.5C 143.889,184.513 140.722,182.847 137.5,181.5C 137.672,179.508 137.005,177.842 135.5,176.5C 138.346,173.54 137.679,171.706 133.5,171C 132.13,169.559 131.13,167.892 130.5,166C 128.865,165.46 127.532,165.96 126.5,167.5C 125.158,165.995 123.492,165.328 121.5,165.5C 121.773,163.549 121.107,162.049 119.5,161C 123.615,159.935 124.949,157.435 123.5,153.5C 120.764,155.024 118.764,157.191 117.5,160C 116.207,160.49 114.873,160.657 113.5,160.5C 113.5,159.5 113.5,158.5 113.5,157.5C 110.938,158.371 108.272,158.371 105.5,157.5C 111.934,149.728 119.267,143.061 127.5,137.5C 131.356,135.672 135.023,134.006 138.5,132.5C 138.84,134.991 139.84,137.158 141.5,139C 141.215,140.89 140.215,142.223 138.5,143C 140,145.167 141.167,145 142,142.5C 144.381,143.435 146.881,143.768 149.5,143.5C 150.562,147.588 152.896,150.921 156.5,153.5C 157.452,155.045 157.785,156.712 157.5,158.5C 160.685,158.722 161.685,160.222 160.5,163C 163.365,166.325 165.365,165.825 166.5,161.5C 169.365,161.055 171.865,161.722 174,163.5C 174.317,161.699 174.984,161.366 176,162.5C 176.837,160.993 178.004,160.493 179.5,161C 177.963,162.11 177.297,163.61 177.5,165.5C 173.821,165.363 170.321,166.029 167,167.5C 166.217,169.319 166.717,170.652 168.5,171.5C 170.386,168.841 172.719,167.841 175.5,168.5C 172.013,169.647 170.013,171.981 169.5,175.5 Z"/></g>
<g><path style="opacity:1" fill="#f2c57f" d="M 203.5,146.5 C 205.544,147.031 207.211,148.198 208.5,150C 209.833,150.167 211.167,150.333 212.5,150.5C 215.502,149.82 218.168,148.487 220.5,146.5C 217.89,152.23 213.557,153.897 207.5,151.5C 206.167,149.833 204.833,148.167 203.5,146.5 Z"/></g>
<g><path style="opacity:0.016" fill="#fff0c6" d="M 203.5,146.5 C 204.833,148.167 206.167,149.833 207.5,151.5C 205.564,150.741 203.731,149.741 202,148.5C 199.332,150.34 196.832,152.34 194.5,154.5C 194.5,154.167 194.5,153.833 194.5,153.5C 196.219,151.456 197.886,149.456 199.5,147.5C 200.833,147.167 202.167,146.833 203.5,146.5 Z"/></g>
<g><path style="opacity:0.624" fill="#fae296" d="M 92.5,147.5 C 95.228,149.227 97.228,151.56 98.5,154.5C 95.7747,158.228 92.4414,161.228 88.5,163.5C 89.4577,162.038 90.6244,160.705 92,159.5C 92.49,158.207 92.6567,156.873 92.5,155.5C 93.8333,155.5 95.1667,155.5 96.5,155.5C 95.6178,152.615 94.2845,149.948 92.5,147.5 Z"/></g>
<g><path style="opacity:0.467" fill="#f9d791" d="M 129.5,132.5 C 128.559,134.05 127.893,135.716 127.5,137.5C 119.267,143.061 111.934,149.728 105.5,157.5C 104.833,157.5 104.167,157.5 103.5,157.5C 111.58,148.417 120.247,140.084 129.5,132.5 Z"/></g>
<g><path style="opacity:0.546" fill="#9f9fa0" d="M 311.5,155.5 C 288.833,155.5 266.167,155.5 243.5,155.5C 254.291,153.977 265.291,153.31 276.5,153.5C 288.37,153.339 300.037,154.006 311.5,155.5 Z"/></g>
<g><path style="opacity:0.416" fill="#9b9b9d" d="M 417.5,155.5 C 393.122,155.186 368.788,155.519 344.5,156.5C 344.611,155.883 344.944,155.383 345.5,155C 369.67,154.17 393.67,154.337 417.5,155.5 Z"/></g>
<g><path style="opacity:0.544" fill="#8a8a8c" d="M 533.5,156.5 C 509.837,155.177 486.171,155.177 462.5,156.5C 463.609,155.71 464.942,155.21 466.5,155C 475.351,154.731 484.184,154.231 493,153.5C 503.058,154.761 513.058,154.761 523,153.5C 526.704,154.089 530.204,155.089 533.5,156.5 Z"/></g>
<g><path style="opacity:0.004" fill="#d0d0d3" d="M 311.5,155.5 C 313.698,155.12 315.365,155.787 316.5,157.5C 314.597,157.204 312.93,156.537 311.5,155.5 Z"/></g>
<g><path style="opacity:1" fill="#0a0d0e" d="M 417.5,155.5 C 423.242,156.249 427.242,159.249 429.5,164.5C 429.427,166.027 430.094,167.027 431.5,167.5C 431.5,167.833 431.5,168.167 431.5,168.5C 431.443,174.851 431.11,181.185 430.5,187.5C 428.625,192.206 427.625,197.206 427.5,202.5C 426.728,206.598 424.728,209.931 421.5,212.5C 420.167,213.167 419.167,214.167 418.5,215.5C 417.198,217.822 415.198,219.155 412.5,219.5C 411.285,220.779 411.618,221.779 413.5,222.5C 414.338,222.842 414.672,223.508 414.5,224.5C 414.427,226.027 415.094,227.027 416.5,227.5C 418.008,229.181 419.008,231.181 419.5,233.5C 419.427,235.027 420.094,236.027 421.5,236.5C 421.5,238.833 421.5,241.167 421.5,243.5C 421.082,244.222 420.416,244.722 419.5,245C 410.833,245.667 402.167,245.667 393.5,245C 392.058,244.623 391.058,243.79 390.5,242.5C 390.34,240.847 389.674,239.514 388.5,238.5C 386.992,236.819 385.992,234.819 385.5,232.5C 385.573,230.973 384.906,229.973 383.5,229.5C 382.596,228.791 382.263,227.791 382.5,226.5C 383.491,224.877 382.824,223.877 380.5,223.5C 373.679,222.345 366.679,222.179 359.5,223C 358.46,226.4 357.794,229.9 357.5,233.5C 357.663,235.857 357.497,238.19 357,240.5C 356.252,242.751 354.752,244.084 352.5,244.5C 344.778,244.767 337.111,244.434 329.5,243.5C 328.335,242.504 327.668,241.171 327.5,239.5C 331.464,216.079 335.797,192.746 340.5,169.5C 341.581,166.373 342.247,163.04 342.5,159.5C 343.906,159.027 344.573,158.027 344.5,156.5C 368.788,155.519 393.122,155.186 417.5,155.5 Z M 401.5,179.5 C 401.557,180.609 401.89,181.609 402.5,182.5C 401.097,185.909 400.43,189.575 400.5,193.5C 399.655,194.671 398.989,196.005 398.5,197.5C 387.546,198.622 376.546,198.788 365.5,198C 364.944,197.617 364.611,197.117 364.5,196.5C 365.903,193.091 366.57,189.425 366.5,185.5C 366.5,185.167 366.5,184.833 366.5,184.5C 367.234,183.122 367.901,181.622 368.5,180C 379.495,179.5 390.495,179.333 401.5,179.5 Z"/></g>
<g><path style="opacity:1" fill="#0c0f0f" d="M 636.5,155.5 C 637.514,156.674 638.847,157.34 640.5,157.5C 642.404,157.738 643.738,158.738 644.5,160.5C 645.167,161.833 646.167,162.833 647.5,163.5C 648.338,163.842 648.672,164.508 648.5,165.5C 649.669,173.154 649.669,180.821 648.5,188.5C 648.694,196.243 646.694,203.243 642.5,209.5C 641.5,209.833 640.833,210.5 640.5,211.5C 639.094,211.973 638.427,212.973 638.5,214.5C 638.5,215.167 638.167,215.5 637.5,215.5C 635.973,215.427 634.973,216.094 634.5,217.5C 631.232,220.707 627.232,222.373 622.5,222.5C 607.129,221.85 592.129,222.516 577.5,224.5C 577.802,227.059 577.468,229.393 576.5,231.5C 574.989,234.544 574.322,237.878 574.5,241.5C 573.738,243.262 572.404,244.262 570.5,244.5C 563.492,244.666 556.492,244.5 549.5,244C 548.756,242.961 547.756,242.461 546.5,242.5C 546.018,241.584 545.685,240.584 545.5,239.5C 548.291,224.083 551.291,208.75 554.5,193.5C 555.461,191.735 555.795,189.735 555.5,187.5C 555.539,183.267 556.205,179.267 557.5,175.5C 558.913,172.781 559.58,169.781 559.5,166.5C 559.198,163.941 559.532,161.607 560.5,159.5C 561.906,159.027 562.573,158.027 562.5,156.5C 562.918,155.778 563.584,155.278 564.5,155C 588.572,154.178 612.572,154.344 636.5,155.5 Z M 619.5,179.5 C 620.234,180.708 620.567,182.041 620.5,183.5C 619.532,185.607 619.198,187.941 619.5,190.5C 618.678,192.389 617.845,194.389 617,196.5C 615.698,197.085 614.531,197.751 613.5,198.5C 602.987,198.416 592.654,198.416 582.5,198.5C 582.5,198.167 582.5,197.833 582.5,197.5C 583.785,194.411 584.451,191.078 584.5,187.5C 585.266,185.316 585.933,182.982 586.5,180.5C 597.48,179.501 608.48,179.168 619.5,179.5 Z"/></g>
<g><path style="opacity:0.106" fill="#c9c9ca" d="M 636.5,155.5 C 638.38,155.229 639.713,155.896 640.5,157.5C 638.847,157.34 637.514,156.674 636.5,155.5 Z"/></g>
<g><path style="opacity:1" fill="#fcb215" d="M 149.5,193.5 C 149.5,193.833 149.5,194.167 149.5,194.5C 148.167,194.5 146.833,194.5 145.5,194.5C 145.5,196.5 145.5,198.5 145.5,200.5C 142.989,200.838 140.655,200.838 138.5,200.5C 137.201,202.758 136.201,205.092 135.5,207.5C 134.5,207.5 133.5,207.5 132.5,207.5C 131.167,210.167 129.833,212.833 128.5,215.5C 128.167,215.5 127.833,215.5 127.5,215.5C 125.641,215.539 124.308,214.706 123.5,213C 122.167,212.333 120.833,212.333 119.5,213C 122.249,214.346 122.583,215.68 120.5,217C 122.992,218.249 122.825,219.416 120,220.5C 118.527,217.073 116.027,214.739 112.5,213.5C 112.167,212.833 111.833,212.167 111.5,211.5C 114.567,207.546 113.567,205.046 108.5,204C 107.333,202.167 106.167,200.333 105,198.5C 100.667,194.833 96.3333,191.167 92,187.5C 92.1282,185.555 91.9615,183.722 91.5,182C 96.7991,178.899 96.7991,177.066 91.5,176.5C 91.3151,174.514 91.9818,172.514 93.5,170.5C 94.7481,171.04 95.9148,171.707 97,172.5C 98.0842,168.517 100.251,165.184 103.5,162.5C 105.416,164.418 107.416,166.252 109.5,168C 110.483,168.591 111.15,168.257 111.5,167C 109.811,165.642 108.478,163.975 107.5,162C 106.552,161.517 105.552,161.351 104.5,161.5C 104.433,160.041 104.766,158.708 105.5,157.5C 108.272,158.371 110.938,158.371 113.5,157.5C 113.5,158.5 113.5,159.5 113.5,160.5C 114.873,160.657 116.207,160.49 117.5,160C 118.764,157.191 120.764,155.024 123.5,153.5C 124.949,157.435 123.615,159.935 119.5,161C 121.107,162.049 121.773,163.549 121.5,165.5C 123.492,165.328 125.158,165.995 126.5,167.5C 127.532,165.96 128.865,165.46 130.5,166C 131.13,167.892 132.13,169.559 133.5,171C 137.679,171.706 138.346,173.54 135.5,176.5C 137.005,177.842 137.672,179.508 137.5,181.5C 140.722,182.847 143.889,184.513 147,186.5C 147.333,188.047 146.833,189.38 145.5,190.5C 146.283,192.288 147.616,193.288 149.5,193.5 Z"/></g>
<g><path style="opacity:1" fill="#090d0d" d="M 243.5,155.5 C 266.167,155.5 288.833,155.5 311.5,155.5C 312.93,156.537 314.597,157.204 316.5,157.5C 317.492,157.328 318.158,157.662 318.5,158.5C 319.419,161.089 321.086,163.089 323.5,164.5C 325.039,169.346 325.706,174.346 325.5,179.5C 324.45,188.739 322.784,197.739 320.5,206.5C 319.097,209.909 318.43,213.575 318.5,217.5C 318.784,219.415 318.451,221.081 317.5,222.5C 316.262,224.214 315.595,226.214 315.5,228.5C 315.672,229.492 315.338,230.158 314.5,230.5C 313.833,230.833 313.167,231.167 312.5,231.5C 311.922,230.453 311.256,230.62 310.5,232C 310.833,232.333 311.167,232.667 311.5,233C 310.552,233.483 309.552,233.649 308.5,233.5C 308.5,234.833 308.5,236.167 308.5,237.5C 304.683,241.409 300.016,243.742 294.5,244.5C 271.788,244.812 249.121,244.479 226.5,243.5C 225.335,242.504 224.668,241.171 224.5,239.5C 225.835,232.819 227.169,226.152 228.5,219.5C 229.913,216.781 230.58,213.781 230.5,210.5C 231.196,202.359 232.529,194.359 234.5,186.5C 235.768,184.095 236.435,181.428 236.5,178.5C 236.5,177.5 236.5,176.5 236.5,175.5C 237.913,172.781 238.58,169.781 238.5,166.5C 238.198,163.941 238.532,161.607 239.5,159.5C 241.167,158.5 242.5,157.167 243.5,155.5 Z M 265.5,180.5 C 275.889,179.859 285.889,180.526 295.5,182.5C 294.067,189.098 293.067,195.764 292.5,202.5C 291.087,205.219 290.42,208.219 290.5,211.5C 289.659,213.379 289.325,215.379 289.5,217.5C 288.711,217.783 288.044,218.283 287.5,219C 278.167,219.667 268.833,219.667 259.5,219C 258.663,217.989 258.33,216.822 258.5,215.5C 259.468,213.393 259.802,211.059 259.5,208.5C 261.118,204.425 262.118,200.092 262.5,195.5C 263.807,190.934 264.474,186.267 264.5,181.5C 265.167,181.5 265.5,181.167 265.5,180.5 Z"/></g>
<g><path style="opacity:0.698" fill="#85868a" d="M 243.5,155.5 C 242.5,157.167 241.167,158.5 239.5,159.5C 239.833,157.167 241.167,155.833 243.5,155.5 Z"/></g>
<g><path style="opacity:1" fill="#0b0e0f" d="M 533.5,156.5 C 537.918,158.583 540.918,161.916 542.5,166.5C 543.229,171.13 543.563,175.797 543.5,180.5C 543.567,181.959 543.234,183.292 542.5,184.5C 540.011,194.572 538.344,204.906 537.5,215.5C 537.161,220.246 535.828,224.58 533.5,228.5C 532.326,229.514 531.66,230.847 531.5,232.5C 531.167,233.5 530.5,234.167 529.5,234.5C 528.167,235.167 527.167,236.167 526.5,237.5C 526.167,238.5 525.5,239.167 524.5,239.5C 522.847,239.66 521.514,240.326 520.5,241.5C 519.417,241.461 518.417,241.127 517.5,240.5C 517.483,241.394 517.149,242.394 516.5,243.5C 515.391,244.29 514.058,244.79 512.5,245C 492.167,245.667 471.833,245.667 451.5,245C 448.826,244.33 446.493,243.163 444.5,241.5C 443.001,239.742 442.668,237.909 443.5,236C 441.753,235.648 440.086,235.148 438.5,234.5C 436.98,231.615 435.98,228.448 435.5,225C 436.474,218.291 437.808,211.791 439.5,205.5C 441.136,201.79 441.802,197.79 441.5,193.5C 441.956,187.939 442.956,182.606 444.5,177.5C 446.074,175.898 446.741,173.898 446.5,171.5C 446.328,170.508 446.662,169.842 447.5,169.5C 450.2,167.766 452.2,165.432 453.5,162.5C 455.749,161.92 457.415,160.587 458.5,158.5C 459.514,157.326 460.847,156.66 462.5,156.5C 486.171,155.177 509.837,155.177 533.5,156.5 Z M 473.5,180.5 C 486.833,180.5 500.167,180.5 513.5,180.5C 513.5,182.167 513.5,183.833 513.5,185.5C 512.781,187.764 512.448,190.097 512.5,192.5C 511.776,194.218 511.109,196.052 510.5,198C 510.728,198.399 511.062,198.565 511.5,198.5C 511.5,198.833 511.5,199.167 511.5,199.5C 509.678,204.205 508.678,209.205 508.5,214.5C 507.566,215.568 507.232,216.901 507.5,218.5C 493.882,219.465 480.216,219.798 466.5,219.5C 467.426,214.537 468.092,209.537 468.5,204.5C 469.903,201.091 470.57,197.425 470.5,193.5C 470.5,193.167 470.5,192.833 470.5,192.5C 471.785,189.411 472.451,186.078 472.5,182.5C 473.338,182.158 473.672,181.492 473.5,180.5 Z"/></g>
<g><path style="opacity:0.522" fill="#898b8a" d="M 344.5,156.5 C 344.573,158.027 343.906,159.027 342.5,159.5C 342.427,157.973 343.094,156.973 344.5,156.5 Z"/></g>
<g><path style="opacity:0.29" fill="#b6b8b9" d="M 562.5,156.5 C 562.573,158.027 561.906,159.027 560.5,159.5C 560.427,157.973 561.094,156.973 562.5,156.5 Z"/></g>
<g><path style="opacity:0.729" fill="#989e9f" d="M 318.5,158.5 C 320.914,159.911 322.581,161.911 323.5,164.5C 321.086,163.089 319.419,161.089 318.5,158.5 Z"/></g>
<g><path style="opacity:0.345" fill="#a6a7a7" d="M 458.5,158.5 C 457.415,160.587 455.749,161.92 453.5,162.5C 454.585,160.413 456.251,159.08 458.5,158.5 Z"/></g>
<g><path style="opacity:0.008" fill="#d6d7d8" d="M 644.5,160.5 C 646.5,160.5 647.5,161.5 647.5,163.5C 646.167,162.833 645.167,161.833 644.5,160.5 Z"/></g>
<g><path style="opacity:0.294" fill="#b5b5b6" d="M 342.5,159.5 C 342.247,163.04 341.581,166.373 340.5,169.5C 340.062,169.565 339.728,169.399 339.5,169C 340.133,165.633 341.133,162.466 342.5,159.5 Z"/></g>
<g><path style="opacity:0.192" fill="#babbbb" d="M 429.5,164.5 C 430.906,164.973 431.573,165.973 431.5,167.5C 430.094,167.027 429.427,166.027 429.5,164.5 Z"/></g>
<g><path style="opacity:0.671" fill="#a9a9ab" d="M 453.5,162.5 C 452.2,165.432 450.2,167.766 447.5,169.5C 448.412,167.405 449.579,165.405 451,163.5C 451.671,162.748 452.504,162.414 453.5,162.5 Z"/></g>
<g><path style="opacity:0.631" fill="#a1a1a3" d="M 323.5,164.5 C 324.793,165.842 325.626,167.509 326,169.5C 326.808,173.027 326.641,176.36 325.5,179.5C 325.706,174.346 325.039,169.346 323.5,164.5 Z"/></g>
<g><path style="opacity:0.651" fill="#b2b3b2" d="M 559.5,166.5 C 559.58,169.781 558.913,172.781 557.5,175.5C 557.42,172.219 558.087,169.219 559.5,166.5 Z"/></g>
<g><path style="opacity:0.529" fill="#9d9e9e" d="M 648.5,165.5 C 650.115,168.169 651.115,171.169 651.5,174.5C 650.699,179.344 649.699,184.011 648.5,188.5C 649.669,180.821 649.669,173.154 648.5,165.5 Z"/></g>
<g><path style="opacity:0.373" fill="#a7a9a9" d="M 542.5,166.5 C 543.973,169.017 544.64,171.85 544.5,175C 544.494,177.033 544.161,178.866 543.5,180.5C 543.563,175.797 543.229,171.13 542.5,166.5 Z"/></g>
<g><path style="opacity:0.313" fill="#feeeb3" d="M 157.5,101.5 C 158.586,101.62 159.253,102.287 159.5,103.5C 158.568,105.765 157.235,107.765 155.5,109.5C 154.527,109.987 153.527,110.487 152.5,111C 109.998,111.167 67.6647,111.667 25.5,112.5C 21.1667,114.167 18.1667,117.167 16.5,121.5C 15.3349,173.998 15.1683,226.665 16,279.5C 17.2739,282.936 19.4406,285.603 22.5,287.5C 23.5,288.167 24.5,288.833 25.5,289.5C 20.3909,288.57 16.8909,285.57 15,280.5C 14.8309,228.929 14.3309,177.429 13.5,126C 14.5328,115.401 20.3661,109.901 31,109.5C 70.5147,110.29 110.015,110.623 149.5,110.5C 153.001,109.507 155.834,107.507 158,104.5C 158.47,103.423 158.303,102.423 157.5,101.5 Z"/></g>
<g><path style="opacity:0.349" fill="#b7b7b7" d="M 238.5,166.5 C 238.58,169.781 237.913,172.781 236.5,175.5C 236.42,172.219 237.087,169.219 238.5,166.5 Z"/></g>
<g><path style="opacity:0.804" fill="#8d8d8d" d="M 446.5,171.5 C 446.741,173.898 446.074,175.898 444.5,177.5C 444.595,175.214 445.262,173.214 446.5,171.5 Z"/></g>
<g><path style="opacity:0.763" fill="#3c3e3f" d="M 295.5,179.5 C 285.319,179.173 275.319,179.506 265.5,180.5C 265.5,181.167 265.167,181.5 264.5,181.5C 264.67,180.178 264.337,179.011 263.5,178C 274.289,178.101 284.956,178.601 295.5,179.5 Z"/></g>
<g><path style="opacity:0.129" fill="#d5dadc" d="M 401.5,179.5 C 390.495,179.333 379.495,179.5 368.5,180C 367.901,181.622 367.234,183.122 366.5,184.5C 366.261,182.533 366.594,180.699 367.5,179C 379.008,178.174 390.341,178.341 401.5,179.5 Z"/></g>
<g><path style="opacity:0.129" fill="#d4d9da" d="M 619.5,179.5 C 608.48,179.168 597.48,179.501 586.5,180.5C 585.933,182.982 585.266,185.316 584.5,187.5C 584.274,184.751 584.607,182.084 585.5,179.5C 596.993,178.176 608.326,178.176 619.5,179.5 Z"/></g>
<g><path style="opacity:0.012" fill="#f8f8f8" d="M 265.5,180.5 C 275.319,179.506 285.319,179.173 295.5,179.5C 296.833,180.5 296.833,181.5 295.5,182.5C 285.889,180.526 275.889,179.859 265.5,180.5 Z"/></g>
<g><path style="opacity:0.012" fill="#fafafa" d="M 473.5,180.5 C 486.99,179.504 500.656,179.171 514.5,179.5C 514.795,181.735 514.461,183.735 513.5,185.5C 513.5,183.833 513.5,182.167 513.5,180.5C 500.167,180.5 486.833,180.5 473.5,180.5 Z"/></g>
<g><path style="opacity:0.71" fill="#7b7f7f" d="M 401.5,179.5 C 403.382,180.221 403.715,181.221 402.5,182.5C 401.89,181.609 401.557,180.609 401.5,179.5 Z"/></g>
<g><path style="opacity:0.651" fill="#afb0b1" d="M 236.5,178.5 C 236.435,181.428 235.768,184.095 234.5,186.5C 234.111,183.447 234.777,180.78 236.5,178.5 Z"/></g>
<g><path style="opacity:0.322" fill="#919294" d="M 619.5,179.5 C 620.586,179.62 621.253,180.287 621.5,181.5C 621.457,182.416 621.124,183.083 620.5,183.5C 620.567,182.041 620.234,180.708 619.5,179.5 Z"/></g>
<g><path style="opacity:0.333" fill="#abadad" d="M 431.5,168.5 C 432.854,174.899 432.521,181.232 430.5,187.5C 431.11,181.185 431.443,174.851 431.5,168.5 Z"/></g>
<g><path style="opacity:0.059" fill="#c3c8c8" d="M 366.5,185.5 C 366.57,189.425 365.903,193.091 364.5,196.5C 364.5,196.167 364.5,195.833 364.5,195.5C 364.549,191.922 365.215,188.589 366.5,185.5 Z"/></g>
<g><path style="opacity:0.051" fill="#cacaca" d="M 555.5,187.5 C 555.795,189.735 555.461,191.735 554.5,193.5C 554.062,193.565 553.728,193.399 553.5,193C 554.109,191.052 554.776,189.218 555.5,187.5 Z"/></g>
<g><path style="opacity:0.227" fill="#b4b4b6" d="M 472.5,182.5 C 472.451,186.078 471.785,189.411 470.5,192.5C 470.322,188.878 470.989,185.544 472.5,182.5 Z"/></g>
<g><path style="opacity:0.047" fill="#c5c5c7" d="M 512.5,192.5 C 512.795,194.735 512.461,196.735 511.5,198.5C 511.062,198.565 510.728,198.399 510.5,198C 511.109,196.052 511.776,194.218 512.5,192.5 Z"/></g>
<g><path style="opacity:0.18" fill="#b3b5b5" d="M 430.5,187.5 C 430.118,192.744 429.118,197.744 427.5,202.5C 427.625,197.206 428.625,192.206 430.5,187.5 Z"/></g>
<g><path style="opacity:0.176" fill="#c1c2c1" d="M 584.5,187.5 C 584.451,191.078 583.785,194.411 582.5,197.5C 582.322,193.878 582.989,190.544 584.5,187.5 Z"/></g>
<g><path style="opacity:0.788" fill="#9fa1a2" d="M 400.5,193.5 C 400.843,195.483 400.176,196.817 398.5,197.5C 398.989,196.005 399.655,194.671 400.5,193.5 Z"/></g>
<g><path style="opacity:0.102" fill="#c5c5c6" d="M 470.5,193.5 C 470.57,197.425 469.903,201.091 468.5,204.5C 468.43,200.575 469.097,196.909 470.5,193.5 Z"/></g>
<g><path style="opacity:0.584" fill="#a7abab" d="M 619.5,190.5 C 620.223,194.39 618.89,197.056 615.5,198.5C 614.833,198.5 614.167,198.5 613.5,198.5C 614.531,197.751 615.698,197.085 617,196.5C 617.845,194.389 618.678,192.389 619.5,190.5 Z"/></g>
<g><path style="opacity:0.78" fill="#414343" d="M 364.5,195.5 C 364.5,195.833 364.5,196.167 364.5,196.5C 364.611,197.117 364.944,197.617 365.5,198C 376.546,198.788 387.546,198.622 398.5,197.5C 398.389,198.117 398.056,198.617 397.5,199C 386.172,199.5 374.838,199.667 363.5,199.5C 363.232,197.901 363.566,196.568 364.5,195.5 Z"/></g>
<g><path style="opacity:0.776" fill="#3f4142" d="M 613.5,198.5 C 614.167,198.5 614.833,198.5 615.5,198.5C 604.5,199.833 593.5,199.833 582.5,198.5C 592.654,198.416 602.987,198.416 613.5,198.5 Z"/></g>
<g><path style="opacity:0.176" fill="#bdbebf" d="M 262.5,195.5 C 262.118,200.092 261.118,204.425 259.5,208.5C 259.627,203.849 260.627,199.515 262.5,195.5 Z"/></g>
<g><path style="opacity:0.537" fill="#9fa0a2" d="M 441.5,193.5 C 441.802,197.79 441.136,201.79 439.5,205.5C 439.717,201.295 440.383,197.295 441.5,193.5 Z"/></g>
<g><path style="opacity:0.986" fill="#575857" d="M 511.5,199.5 C 511.876,204.894 510.876,209.894 508.5,214.5C 508.678,209.205 509.678,204.205 511.5,199.5 Z"/></g>
<g><path style="opacity:0.118" fill="#c2c3c3" d="M 542.5,184.5 C 541.47,195.057 539.804,205.39 537.5,215.5C 538.344,204.906 540.011,194.572 542.5,184.5 Z"/></g>
<g><path style="opacity:0.471" fill="#9a9b9c" d="M 292.5,202.5 C 292.58,205.781 291.913,208.781 290.5,211.5C 290.42,208.219 291.087,205.219 292.5,202.5 Z"/></g>
<g><path style="opacity:0.012" fill="#cecece" d="M 642.5,209.5 C 642.5,210.833 641.833,211.5 640.5,211.5C 640.833,210.5 641.5,209.833 642.5,209.5 Z"/></g>
<g><path style="opacity:0.024" fill="#cbcbcc" d="M 640.5,211.5 C 640.573,213.027 639.906,214.027 638.5,214.5C 638.427,212.973 639.094,211.973 640.5,211.5 Z"/></g>
<g><path style="opacity:0.345" fill="#aaadad" d="M 320.5,206.5 C 320.57,210.425 319.903,214.091 318.5,217.5C 318.43,213.575 319.097,209.909 320.5,206.5 Z"/></g>
<g><path style="opacity:0.004" fill="#dadbda" d="M 421.5,212.5 C 421.5,214.5 420.5,215.5 418.5,215.5C 419.167,214.167 420.167,213.167 421.5,212.5 Z"/></g>
<g><path style="opacity:0.004" fill="#e1e1e1" d="M 637.5,215.5 C 637.027,216.906 636.027,217.573 634.5,217.5C 634.973,216.094 635.973,215.427 637.5,215.5 Z"/></g>
<g><path style="opacity:0.396" fill="#ababac" d="M 230.5,210.5 C 230.58,213.781 229.913,216.781 228.5,219.5C 228.42,216.219 229.087,213.219 230.5,210.5 Z"/></g>
<g><path style="opacity:0.522" fill="#818384" d="M 258.5,215.5 C 258.33,216.822 258.663,217.989 259.5,219C 268.833,219.667 278.167,219.667 287.5,219C 288.044,218.283 288.711,217.783 289.5,217.5C 289.586,218.496 289.252,219.329 288.5,220C 278.5,220.667 268.5,220.667 258.5,220C 257.199,218.384 257.199,216.884 258.5,215.5 Z"/></g>
<g><path style="opacity:0.504" fill="#828384" d="M 507.5,218.5 C 507.389,219.117 507.056,219.617 506.5,220C 492.994,220.827 479.66,220.66 466.5,219.5C 480.216,219.798 493.882,219.465 507.5,218.5 Z"/></g>
<g><path style="opacity:1" fill="#fbbe15" d="M 16.5,121.5 C 16.5,158.833 16.5,196.167 16.5,233.5C 16.3334,247.837 16.5001,262.171 17,276.5C 18.1827,275.269 19.3493,275.269 20.5,276.5C 19.276,278.839 19.276,281.172 20.5,283.5C 21.2508,282.624 21.7508,281.624 22,280.5C 22.3333,281.167 22.6667,281.833 23,282.5C 23.7175,281.549 24.5509,281.383 25.5,282C 26.5,283.667 27.5,285.333 28.5,287C 31.6667,287.167 34.8333,287.333 38,287.5C 41.693,287.416 45.193,286.75 48.5,285.5C 50.5271,287.339 52.8604,287.839 55.5,287C 53.7806,285.943 51.9472,285.11 50,284.5C 49.3333,281.5 49.3333,278.5 50,275.5C 51.0084,275.982 52.175,276.148 53.5,276C 53.5795,277.907 53.2461,279.907 52.5,282C 58.9277,286.135 59.9277,285.135 55.5,279C 57.4631,276.319 59.7964,275.486 62.5,276.5C 59.4869,277.356 58.8203,279.189 60.5,282C 88.1647,282.5 115.831,282.667 143.5,282.5C 143.741,279.966 142.741,278.3 140.5,277.5C 138.5,275.833 136.5,274.167 134.5,272.5C 132.167,272.167 130.833,270.833 130.5,268.5C 127.833,265.167 124.833,262.167 121.5,259.5C 117.537,255.036 113.37,250.702 109,246.5C 108.678,244.311 109.178,242.311 110.5,240.5C 111.167,240.167 111.833,239.833 112.5,239.5C 114.5,238.167 116.167,236.5 117.5,234.5C 123.463,230.205 128.796,225.205 133.5,219.5C 138.928,215.578 143.928,211.078 148.5,206C 149.793,205.51 151.127,205.343 152.5,205.5C 152.833,205.5 153.167,205.5 153.5,205.5C 154.08,207.749 155.413,209.415 157.5,210.5C 160.231,214.234 163.564,217.234 167.5,219.5C 167.343,220.873 167.51,222.207 168,223.5C 170.448,224.973 172.948,226.307 175.5,227.5C 177.255,230.436 179.255,233.269 181.5,236C 182.793,236.49 184.127,236.657 185.5,236.5C 185.831,211.994 185.498,187.661 184.5,163.5C 184.167,163.5 183.833,163.5 183.5,163.5C 185.751,160.705 188.418,158.372 191.5,156.5C 191.805,198.186 191.472,239.853 190.5,281.5C 187.09,281.384 185.756,283.05 186.5,286.5C 184.972,287.309 183.306,287.976 181.5,288.5C 128.477,288.816 75.4769,288.483 22.5,287.5C 19.4406,285.603 17.2739,282.936 16,279.5C 15.1683,226.665 15.3349,173.998 16.5,121.5 Z M 182.5,234.5 C 181.833,233.167 181.167,231.833 180.5,230.5C 178.589,229.925 176.922,228.925 175.5,227.5C 173.242,224.575 170.575,221.909 167.5,219.5C 164.769,215.766 161.436,212.766 157.5,210.5C 156.92,208.251 155.587,206.585 153.5,205.5C 153.167,205.5 152.833,205.5 152.5,205.5C 152.443,204.391 152.11,203.391 151.5,202.5C 150.833,202.5 150.167,202.5 149.5,202.5C 150.66,200.797 149.993,200.131 147.5,200.5C 147.649,201.552 147.483,202.552 147,203.5C 146.346,202.304 145.846,202.304 145.5,203.5C 146.326,204.451 146.492,205.451 146,206.5C 141.581,210.749 137.414,215.083 133.5,219.5C 127.511,223.823 122.178,228.823 117.5,234.5C 114.833,235.167 113.167,236.833 112.5,239.5C 111.833,239.833 111.167,240.167 110.5,240.5C 110.565,240.062 110.399,239.728 110,239.5C 109.385,241.116 108.385,242.449 107,243.5C 106.333,244.5 106.333,245.5 107,246.5C 111.426,251.434 116.26,255.767 121.5,259.5C 123.5,263.5 126.5,266.5 130.5,268.5C 130.833,270.833 132.167,272.167 134.5,272.5C 135.5,275.5 137.5,277.5 140.5,278.5C 114.833,279.833 89.1667,279.833 63.5,278.5C 65.0443,278.297 66.3777,277.63 67.5,276.5C 70.5939,273.417 73.2606,270.084 75.5,266.5C 77.5,266.5 78.5,265.5 78.5,263.5C 83.8003,259.867 88.4669,255.534 92.5,250.5C 95.5628,248.949 98.2295,246.782 100.5,244C 101.549,243.508 102.549,243.674 103.5,244.5C 104.604,243.369 104.271,242.535 102.5,242C 104.392,241.027 106.392,240.36 108.5,240C 107.044,239.577 106.544,238.744 107,237.5C 112.67,232.663 118.17,227.663 123.5,222.5C 125.063,221.055 126.396,219.389 127.5,217.5C 133.823,212.843 139.49,207.51 144.5,201.5C 146.144,201.19 147.144,200.19 147.5,198.5C 151.838,195.309 155.838,191.642 159.5,187.5C 167.488,180.679 175.321,173.679 183,166.5C 183.83,189.337 183.663,212.004 182.5,234.5 Z"/></g>
<g><path style="opacity:1" fill="#fdbc12" d="M 116.5,226.5 C 114.841,229.833 112.175,231.5 108.5,231.5C 108.649,232.552 108.483,233.552 108,234.5C 102.603,239.729 97.4361,245.062 92.5,250.5C 87.2522,254.076 82.5855,258.41 78.5,263.5C 77.1667,264.167 76.1667,265.167 75.5,266.5C 71.5796,269.813 67.5796,273.146 63.5,276.5C 63.1667,276.5 62.8333,276.5 62.5,276.5C 59.7964,275.486 57.4631,276.319 55.5,279C 59.9277,285.135 58.9277,286.135 52.5,282C 53.2461,279.907 53.5795,277.907 53.5,276C 52.175,276.148 51.0084,275.982 50,275.5C 49.3333,278.5 49.3333,281.5 50,284.5C 51.9472,285.11 53.7806,285.943 55.5,287C 52.8604,287.839 50.5271,287.339 48.5,285.5C 45.193,286.75 41.693,287.416 38,287.5C 34.8333,287.333 31.6667,287.167 28.5,287C 27.5,285.333 26.5,283.667 25.5,282C 24.5509,281.383 23.7175,281.549 23,282.5C 22.6667,281.833 22.3333,281.167 22,280.5C 21.7508,281.624 21.2508,282.624 20.5,283.5C 19.276,281.172 19.276,278.839 20.5,276.5C 19.3493,275.269 18.1827,275.269 17,276.5C 16.5001,262.171 16.3334,247.837 16.5,233.5C 17.1515,234.091 17.8182,234.757 18.5,235.5C 19.9965,231.665 20.9965,231.665 21.5,235.5C 23.9267,235.477 26.26,234.977 28.5,234C 30.8877,232.139 33.5544,230.806 36.5,230C 37.2401,228.215 37.9067,226.382 38.5,224.5C 39.325,223.614 40.325,223.281 41.5,223.5C 41.0944,229.901 37.7611,234.068 31.5,236C 33.6954,237.373 36.0288,237.706 38.5,237C 40.5486,234.407 42.7152,231.907 45,229.5C 45.6667,227.167 45.6667,224.833 45,222.5C 40.2945,221.118 40.4612,220.451 45.5,220.5C 44.8642,214.441 47.0308,213.107 52,216.5C 52.5486,209.891 55.7152,204.558 61.5,200.5C 61.369,201.239 61.5357,201.906 62,202.5C 64.4665,201.212 66.9665,201.212 69.5,202.5C 72.7586,199.997 74.2586,196.664 74,192.5C 75.0113,191.663 76.1779,191.33 77.5,191.5C 76.3922,201.195 79.5589,209.195 87,215.5C 87.4828,216.448 87.6495,217.448 87.5,218.5C 89.3904,218.297 90.8904,218.963 92,220.5C 93,222.5 94,224.5 95,226.5C 95.6667,225.833 96.3333,225.167 97,224.5C 97.2086,226.689 96.8753,228.689 96,230.5C 98.4659,229.223 100.966,229.223 103.5,230.5C 102.376,231.914 101.376,233.414 100.5,235C 102.134,235.494 103.801,235.66 105.5,235.5C 105.238,234.022 105.571,232.689 106.5,231.5C 108.736,230.836 110.736,229.669 112.5,228C 110.789,226.867 110.289,225.367 111,223.5C 112.506,225.174 114.339,226.174 116.5,226.5 Z"/></g>
<g><path style="opacity:0.573" fill="#fde8a5" d="M 62.5,196.5 C 54.1002,205.902 45.1002,214.569 35.5,222.5C 43.8397,213.161 52.8397,204.494 62.5,196.5 Z"/></g>
<g><path style="opacity:0.094" fill="#feefbe" d="M 144.5,201.5 C 139.49,207.51 133.823,212.843 127.5,217.5C 127.5,216.833 127.5,216.167 127.5,215.5C 127.833,215.5 128.167,215.5 128.5,215.5C 133.532,210.467 138.865,205.801 144.5,201.5 Z"/></g>
<g><path style="opacity:1" fill="#f1b838" d="M 149.5,194.5 C 148.833,195.833 148.167,197.167 147.5,198.5C 147.144,200.19 146.144,201.19 144.5,201.5C 138.865,205.801 133.532,210.467 128.5,215.5C 129.833,212.833 131.167,210.167 132.5,207.5C 133.5,207.5 134.5,207.5 135.5,207.5C 136.201,205.092 137.201,202.758 138.5,200.5C 140.655,200.838 142.989,200.838 145.5,200.5C 145.5,198.5 145.5,196.5 145.5,194.5C 146.833,194.5 148.167,194.5 149.5,194.5 Z"/></g>
<g><path style="opacity:0.064" fill="#fef7ba" d="M 183.5,163.5 C 183.833,163.5 184.167,163.5 184.5,163.5C 184.833,187.509 184.5,211.509 183.5,235.5C 182.893,235.376 182.56,235.043 182.5,234.5C 183.663,212.004 183.83,189.337 183,166.5C 175.321,173.679 167.488,180.679 159.5,187.5C 162.434,183.227 165.767,179.227 169.5,175.5C 174.467,171.868 179.133,167.868 183.5,163.5 Z"/></g>
<g><path style="opacity:1" fill="#fed582" d="M 159.5,187.5 C 155.838,191.642 151.838,195.309 147.5,198.5C 148.167,197.167 148.833,195.833 149.5,194.5C 149.5,194.167 149.5,193.833 149.5,193.5C 149.389,192.883 149.056,192.383 148.5,192C 150.112,191.28 151.612,191.446 153,192.5C 154.777,190.21 156.944,188.543 159.5,187.5 Z"/></g>
<g><path style="opacity:0.549" fill="#fee9a9" d="M 79.5,180.5 C 76.5,183.833 73.5,187.167 70.5,190.5C 68.3428,192.412 66.0094,194.079 63.5,195.5C 68.1514,189.851 73.4847,184.851 79.5,180.5 Z"/></g>
<g><path style="opacity:0.02" fill="#fef1b9" d="M 79.5,172.5 C 71.5322,180.802 63.5322,189.136 55.5,197.5C 53.7628,196.103 52.4295,194.436 51.5,192.5C 53.4546,193.323 55.4546,193.49 57.5,193C 63.2792,187.221 69.1126,181.387 75,175.5C 75.4828,174.552 75.6495,173.552 75.5,172.5C 76.8333,172.5 78.1667,172.5 79.5,172.5 Z"/></g>
<g><path style="opacity:1" fill="#fcb714" d="M 103.5,157.5 C 104.167,157.5 104.833,157.5 105.5,157.5C 104.766,158.708 104.433,160.041 104.5,161.5C 105.552,161.351 106.552,161.517 107.5,162C 108.478,163.975 109.811,165.642 111.5,167C 111.15,168.257 110.483,168.591 109.5,168C 107.416,166.252 105.416,164.418 103.5,162.5C 100.251,165.184 98.0842,168.517 97,172.5C 95.9148,171.707 94.7481,171.04 93.5,170.5C 91.9818,172.514 91.3151,174.514 91.5,176.5C 96.7991,177.066 96.7991,178.899 91.5,182C 91.9615,183.722 92.1282,185.555 92,187.5C 96.3333,191.167 100.667,194.833 105,198.5C 106.167,200.333 107.333,202.167 108.5,204C 113.567,205.046 114.567,207.546 111.5,211.5C 111.833,212.167 112.167,212.833 112.5,213.5C 116.027,214.739 118.527,217.073 120,220.5C 122.825,219.416 122.992,218.249 120.5,217C 122.583,215.68 122.249,214.346 119.5,213C 120.833,212.333 122.167,212.333 123.5,213C 124.308,214.706 125.641,215.539 127.5,215.5C 127.5,216.167 127.5,216.833 127.5,217.5C 123.562,220.098 119.895,223.098 116.5,226.5C 114.339,226.174 112.506,225.174 111,223.5C 110.289,225.367 110.789,226.867 112.5,228C 110.736,229.669 108.736,230.836 106.5,231.5C 105.571,232.689 105.238,234.022 105.5,235.5C 103.801,235.66 102.134,235.494 100.5,235C 101.376,233.414 102.376,231.914 103.5,230.5C 100.966,229.223 98.4659,229.223 96,230.5C 96.8753,228.689 97.2086,226.689 97,224.5C 96.3333,225.167 95.6667,225.833 95,226.5C 94,224.5 93,222.5 92,220.5C 90.8904,218.963 89.3904,218.297 87.5,218.5C 87.6495,217.448 87.4828,216.448 87,215.5C 79.5589,209.195 76.3922,201.195 77.5,191.5C 76.1779,191.33 75.0113,191.663 74,192.5C 74.2586,196.664 72.7586,199.997 69.5,202.5C 66.9665,201.212 64.4665,201.212 62,202.5C 61.5357,201.906 61.369,201.239 61.5,200.5C 63.6563,198.159 66.1563,196.159 69,194.5C 69.7914,193.255 70.2914,191.922 70.5,190.5C 73.5,187.167 76.5,183.833 79.5,180.5C 87.4391,174.23 94.7724,167.23 101.5,159.5C 101.5,158.167 102.167,157.5 103.5,157.5 Z"/></g>
<g><path style="opacity:0.631" fill="#fde8a1" d="M 36.5,177.5 C 41.8333,180.833 46.1667,185.167 49.5,190.5C 44.8814,186.548 40.5481,182.215 36.5,177.5 Z"/></g>
<g><path style="opacity:0.835" fill="#edcb68" d="M 184.5,163.5 C 185.498,187.661 185.831,211.994 185.5,236.5C 184.127,236.657 182.793,236.49 181.5,236C 179.255,233.269 177.255,230.436 175.5,227.5C 176.922,228.925 178.589,229.925 180.5,230.5C 181.167,231.833 181.833,233.167 182.5,234.5C 182.56,235.043 182.893,235.376 183.5,235.5C 184.5,211.509 184.833,187.509 184.5,163.5 Z"/></g>
<g><path style="opacity:0.156" fill="#fff1c2" d="M 30.5,171.5 C 28.6159,171.288 27.2826,170.288 26.5,168.5C 25.914,168.709 25.414,169.043 25,169.5C 25.6667,190.167 25.6667,210.833 25,231.5C 28.0977,227.893 31.5977,224.893 35.5,222.5C 32.1877,226.479 28.521,230.146 24.5,233.5C 23.5003,210.843 23.167,188.176 23.5,165.5C 27.6603,165.325 29.9936,167.325 30.5,171.5 Z"/></g>
<g><path style="opacity:0.694" fill="#fce4a0" d="M 30.5,171.5 C 33.5,172.5 35.5,174.5 36.5,177.5C 34.215,175.882 32.215,173.882 30.5,171.5 Z"/></g>
<g><path style="opacity:0.016" fill="#fff0b7" d="M 157.5,210.5 C 161.436,212.766 164.769,215.766 167.5,219.5C 163.564,217.234 160.231,214.234 157.5,210.5 Z"/></g>
<g><path style="opacity:0.467" fill="#fcedae" d="M 149.5,202.5 C 150.167,202.5 150.833,202.5 151.5,202.5C 152.11,203.391 152.443,204.391 152.5,205.5C 151.127,205.343 149.793,205.51 148.5,206C 143.928,211.078 138.928,215.578 133.5,219.5C 137.414,215.083 141.581,210.749 146,206.5C 146.492,205.451 146.326,204.451 145.5,203.5C 145.846,202.304 146.346,202.304 147,203.5C 147.483,202.552 147.649,201.552 147.5,200.5C 149.993,200.131 150.66,200.797 149.5,202.5 Z"/></g>
<g><path style="opacity:0.012" fill="#fff5af" d="M 153.5,205.5 C 155.587,206.585 156.92,208.251 157.5,210.5C 155.413,209.415 154.08,207.749 153.5,205.5 Z"/></g>
<g><path style="opacity:1" fill="#fede8b" d="M 88.5,163.5 C 88.631,164.239 88.4643,164.906 88,165.5C 85.4912,167.648 82.9912,169.648 80.5,171.5C 82.1157,169.584 81.7823,168.084 79.5,167C 83.0801,167.087 86.0801,165.92 88.5,163.5 Z"/></g>
<g><path style="opacity:0.447" fill="#fde5a6" d="M 101.5,159.5 C 94.7724,167.23 87.4391,174.23 79.5,180.5C 79.4142,179.504 79.7476,178.671 80.5,178C 87.3657,171.631 94.3657,165.465 101.5,159.5 Z"/></g>
<g><path style="opacity:0.231" fill="#b3b6b6" d="M 412.5,219.5 C 413.11,220.391 413.443,221.391 413.5,222.5C 411.618,221.779 411.285,220.779 412.5,219.5 Z"/></g>
<g><path style="opacity:1" fill="#f8d87d" d="M 167.5,219.5 C 170.575,221.909 173.242,224.575 175.5,227.5C 172.948,226.307 170.448,224.973 168,223.5C 167.51,222.207 167.343,220.873 167.5,219.5 Z"/></g>
<g><path style="opacity:0.208" fill="#bec0c1" d="M 380.5,223.5 C 373.825,223.334 367.158,223.5 360.5,224C 359.867,227.367 358.867,230.534 357.5,233.5C 357.794,229.9 358.46,226.4 359.5,223C 366.679,222.179 373.679,222.345 380.5,223.5 Z"/></g>
<g><path style="opacity:0.208" fill="#c9cccc" d="M 622.5,222.5 C 607.598,223.182 592.598,223.848 577.5,224.5C 592.129,222.516 607.129,221.85 622.5,222.5 Z"/></g>
<g><path style="opacity:0.639" fill="#fce292" d="M 194.5,153.5 C 194.5,153.833 194.5,154.167 194.5,154.5C 194.832,195.67 194.499,236.67 193.5,277.5C 193.167,277.5 192.833,277.5 192.5,277.5C 192.5,236.833 192.5,196.167 192.5,155.5C 192.5,154.167 193.167,153.5 194.5,153.5 Z"/></g>
<g><path style="opacity:1" fill="#757675" d="M 380.5,223.5 C 382.824,223.877 383.491,224.877 382.5,226.5C 381.094,226.027 380.427,225.027 380.5,223.5 Z"/></g>
<g><path style="opacity:0.004" fill="#cbcece" d="M 317.5,222.5 C 317.741,224.898 317.074,226.898 315.5,228.5C 315.595,226.214 316.262,224.214 317.5,222.5 Z"/></g>
<g><path style="opacity:0.161" fill="#c6c7c8" d="M 414.5,224.5 C 415.906,224.973 416.573,225.973 416.5,227.5C 415.094,227.027 414.427,226.027 414.5,224.5 Z"/></g>
<g><path style="opacity:0.498" fill="#ffedad" d="M 133.5,219.5 C 128.796,225.205 123.463,230.205 117.5,234.5C 122.178,228.823 127.511,223.823 133.5,219.5 Z"/></g>
<g><path style="opacity:0.004" fill="#d6d7d6" d="M 314.5,230.5 C 314.573,232.027 313.906,233.027 312.5,233.5C 312.5,232.833 312.5,232.167 312.5,231.5C 313.167,231.167 313.833,230.833 314.5,230.5 Z"/></g>
<g><path style="opacity:0.043" fill="#d2d2dd" d="M 383.5,229.5 C 384.906,229.973 385.573,230.973 385.5,232.5C 384.094,232.027 383.427,231.027 383.5,229.5 Z"/></g>
<g><path style="opacity:0.035" fill="#c0c1cc" d="M 533.5,228.5 C 533.771,230.38 533.104,231.713 531.5,232.5C 531.66,230.847 532.326,229.514 533.5,228.5 Z"/></g>
<g><path style="opacity:1" fill="#484849" d="M 312.5,231.5 C 312.5,232.167 312.5,232.833 312.5,233.5C 311.5,235.167 310.167,236.5 308.5,237.5C 308.5,236.167 308.5,234.833 308.5,233.5C 309.552,233.649 310.552,233.483 311.5,233C 311.167,232.667 310.833,232.333 310.5,232C 311.256,230.62 311.922,230.453 312.5,231.5 Z"/></g>
<g><path style="opacity:0.278" fill="#b1b3b3" d="M 419.5,233.5 C 420.906,233.973 421.573,234.973 421.5,236.5C 420.094,236.027 419.427,235.027 419.5,233.5 Z"/></g>
<g><path style="opacity:1" fill="#5a5b5c" d="M 438.5,234.5 C 440.086,235.148 441.753,235.648 443.5,236C 442.668,237.909 443.001,239.742 444.5,241.5C 441.81,239.807 439.81,237.473 438.5,234.5 Z"/></g>
<g><path style="opacity:0.212" fill="#fff8c9" d="M 117.5,234.5 C 116.167,236.5 114.5,238.167 112.5,239.5C 113.167,236.833 114.833,235.167 117.5,234.5 Z"/></g>
<g><path style="opacity:1" fill="#f1be2b" d="M 192.5,155.5 C 192.5,196.167 192.5,236.833 192.5,277.5C 192.103,281.565 190.103,284.565 186.5,286.5C 185.756,283.05 187.09,281.384 190.5,281.5C 191.472,239.853 191.805,198.186 191.5,156.5C 191.5,155.833 191.833,155.5 192.5,155.5 Z"/></g>
<g><path style="opacity:0.008" fill="#d6d7d8" d="M 529.5,234.5 C 529.5,236.5 528.5,237.5 526.5,237.5C 527.167,236.167 528.167,235.167 529.5,234.5 Z"/></g>
<g><path style="opacity:0.337" fill="#afb1b2" d="M 576.5,231.5 C 576.451,235.078 575.785,238.411 574.5,241.5C 574.322,237.878 574.989,234.544 576.5,231.5 Z"/></g>
<g><path style="opacity:0.125" fill="#cbcccc" d="M 388.5,238.5 C 389.674,239.514 390.34,240.847 390.5,242.5C 388.896,241.713 388.229,240.38 388.5,238.5 Z"/></g>
<g><path style="opacity:0.855" fill="#858686" d="M 421.5,236.5 C 422.249,237.531 422.915,238.698 423.5,240C 422.915,241.302 422.249,242.469 421.5,243.5C 421.5,241.167 421.5,238.833 421.5,236.5 Z"/></g>
<g><path style="opacity:0.086" fill="#fef0be" d="M 127.5,217.5 C 126.396,219.389 125.063,221.055 123.5,222.5C 118.17,227.663 112.67,232.663 107,237.5C 106.544,238.744 107.044,239.577 108.5,240C 106.392,240.36 104.392,241.027 102.5,242C 104.271,242.535 104.604,243.369 103.5,244.5C 102.549,243.674 101.549,243.508 100.5,244C 98.2295,246.782 95.5628,248.949 92.5,250.5C 97.4361,245.062 102.603,239.729 108,234.5C 108.483,233.552 108.649,232.552 108.5,231.5C 112.175,231.5 114.841,229.833 116.5,226.5C 119.895,223.098 123.562,220.098 127.5,217.5 Z"/></g>
<g><path style="opacity:1" fill="#5b5c5b" d="M 520.5,241.5 C 519.713,243.104 518.38,243.771 516.5,243.5C 517.149,242.394 517.483,241.394 517.5,240.5C 518.417,241.127 519.417,241.461 520.5,241.5 Z"/></g>
<g><path style="opacity:0.208" fill="#bbbcbc" d="M 524.5,239.5 C 523.713,241.104 522.38,241.771 520.5,241.5C 521.514,240.326 522.847,239.66 524.5,239.5 Z"/></g>
<g><path style="opacity:0.229" fill="#c8c8c8" d="M 226.5,243.5 C 249.121,244.479 271.788,244.812 294.5,244.5C 272.337,245.663 250.004,245.83 227.5,245C 226.944,244.617 226.611,244.117 226.5,243.5 Z"/></g>
<g><path style="opacity:0.231" fill="#c5c6c7" d="M 329.5,243.5 C 337.111,244.434 344.778,244.767 352.5,244.5C 345.345,245.655 338.012,245.822 330.5,245C 329.944,244.617 329.611,244.117 329.5,243.5 Z"/></g>
<g><path style="opacity:0.23" fill="#c2c2c2" d="M 546.5,242.5 C 547.756,242.461 548.756,242.961 549.5,244C 556.492,244.5 563.492,244.666 570.5,244.5C 563.345,245.655 556.012,245.822 548.5,245C 547.619,244.292 546.953,243.458 546.5,242.5 Z"/></g>
<g><path style="opacity:0.392" fill="#fef1b8" d="M 110.5,240.5 C 109.178,242.311 108.678,244.311 109,246.5C 113.37,250.702 117.537,255.036 121.5,259.5C 116.26,255.767 111.426,251.434 107,246.5C 106.333,245.5 106.333,244.5 107,243.5C 108.385,242.449 109.385,241.116 110,239.5C 110.399,239.728 110.565,240.062 110.5,240.5 Z"/></g>
<g><path style="opacity:0.035" fill="#fef1b6" d="M 92.5,250.5 C 88.4669,255.534 83.8003,259.867 78.5,263.5C 82.5855,258.41 87.2522,254.076 92.5,250.5 Z"/></g>
<g><path style="opacity:0.02" fill="#fff4c6" d="M 121.5,259.5 C 124.833,262.167 127.833,265.167 130.5,268.5C 126.5,266.5 123.5,263.5 121.5,259.5 Z"/></g>
<g><path style="opacity:0.004" fill="#fff7dc" d="M 78.5,263.5 C 78.5,265.5 77.5,266.5 75.5,266.5C 76.1667,265.167 77.1667,264.167 78.5,263.5 Z"/></g>
<g><path style="opacity:0.149" fill="#fff3c8" d="M 75.5,266.5 C 73.2606,270.084 70.5939,273.417 67.5,276.5C 66.3777,277.63 65.0443,278.297 63.5,278.5C 63.5,278.167 63.5,277.833 63.5,277.5C 63.5,277.167 63.5,276.833 63.5,276.5C 67.5796,273.146 71.5796,269.813 75.5,266.5 Z"/></g>
<g><path style="opacity:0.016" fill="#fff4c7" d="M 134.5,272.5 C 136.5,274.167 138.5,275.833 140.5,277.5C 140.5,277.833 140.5,278.167 140.5,278.5C 137.5,277.5 135.5,275.5 134.5,272.5 Z"/></g>
<g><path style="opacity:1" fill="#f3be30" d="M 62.5,276.5 C 62.8333,276.5 63.1667,276.5 63.5,276.5C 63.5,276.833 63.5,277.167 63.5,277.5C 61.3129,278.049 60.6462,279.215 61.5,281C 88.0032,281.83 114.337,281.663 140.5,280.5C 141.833,279.833 141.833,279.167 140.5,278.5C 140.5,278.167 140.5,277.833 140.5,277.5C 142.741,278.3 143.741,279.966 143.5,282.5C 115.831,282.667 88.1647,282.5 60.5,282C 58.8203,279.189 59.4869,277.356 62.5,276.5 Z"/></g>
<g><path style="opacity:0.6" fill="#f3d983" d="M 63.5,277.5 C 63.5,277.833 63.5,278.167 63.5,278.5C 62.9569,278.56 62.6236,278.893 62.5,279.5C 88.4915,280.5 114.491,280.833 140.5,280.5C 114.337,281.663 88.0032,281.83 61.5,281C 60.6462,279.215 61.3129,278.049 63.5,277.5 Z"/></g>
<g><path style="opacity:0.029" fill="#fffed7" d="M 63.5,278.5 C 89.1667,279.833 114.833,279.833 140.5,278.5C 141.833,279.167 141.833,279.833 140.5,280.5C 114.491,280.833 88.4915,280.5 62.5,279.5C 62.6236,278.893 62.9569,278.56 63.5,278.5 Z"/></g>
<g><path style="opacity:0.889" fill="#eec44e" d="M 22.5,287.5 C 75.4769,288.483 128.477,288.816 181.5,288.5C 129.669,289.499 77.6693,289.832 25.5,289.5C 24.5,288.833 23.5,288.167 22.5,287.5 Z"/></g>
<g><path style="opacity:0.067" fill="#fffdcf" d="M 192.5,277.5 C 192.833,277.5 193.167,277.5 193.5,277.5C 192.892,284.279 189.226,288.445 182.5,290C 129.998,290.832 77.6651,290.665 25.5,289.5C 77.6693,289.832 129.669,289.499 181.5,288.5C 183.306,287.976 184.972,287.309 186.5,286.5C 190.103,284.565 192.103,281.565 192.5,277.5 Z"/></g>
</svg>
