<svg id="New_Layer" data-name="New Layer" xmlns="http://www.w3.org/2000/svg" xmlns:xlink="http://www.w3.org/1999/xlink" viewBox="0 0 333.94 326.35"><defs><style>.cls-1{fill-rule:evenodd;fill:url(#Gradiente_sem_nome_4);}</style><linearGradient id="Gradiente_sem_nome_4" x1="30.16" y1="290.67" x2="307.2" y2="32.41" gradientUnits="userSpaceOnUse"><stop offset="0" stop-color="#e5b533"/><stop offset="1" stop-color="#e5912d"/></linearGradient></defs><path class="cls-1" d="M237,6.32c-5.13.71-8.45,2-10.85,4.29a10,10,0,0,0-3.37,7.9,15.78,15.78,0,0,0,1.85,7.24,29.37,29.37,0,0,0,5.22,7.4,24.78,24.78,0,0,1,1.81,2c0,.07-2.64,2.61-5.86,5.67l-5.84,5.55-96.59.12-96.59.12-1.9.54a29.67,29.67,0,0,0-4,1.57A21.46,21.46,0,0,0,9.36,62.31L8.7,64.42l-.08,117.8c0,82.72,0,118.31.19,119.47a21.24,21.24,0,0,0,6.36,12.19c1.88,1.88,2.49,2.64,2.59,3.23l.12.81,1.71.09a14.87,14.87,0,0,1,3.7.83,20.24,20.24,0,0,0,3.56,1c2.16.36,234.87.36,237,0a22.14,22.14,0,0,0,17.6-15.63l.55-1.78.07-94.46,0-94.45,5.53-5.2c3-2.84,6.22-5.86,7.1-6.71l1.61-1.52,1.83,1.87c6.52,6.69,14.8,8.52,20.71,4.58,3.44-2.3,5.55-6.59,6.17-12.55.14-1.37.24-16.23.24-38.44,0-40.16.09-37.58-1.62-41a12.49,12.49,0,0,0-2.65-3.59,14.54,14.54,0,0,0-6.65-4l-1.78-.52-37.48-.07C254.53,6.24,237.35,6.27,237,6.32ZM204.68,61l-91.94,87.72L22,235.23l-.07-26.86c0-14.78,0-38.91,0-53.67L22,127.91l24,23.71c13.16,13,24,23.72,24.1,23.72s66-62.85,66.13-63.11c0-.09-10.7-10.63-23.85-23.39L85.45,62.71l-3-2.91H205.86Zm64.37,150.19L269,239.64l-26.17-25.27-26.15-25.29-16.92,16-33.21,31.37c-9,8.47-16.28,15.49-16.26,15.58s12.46,12.46,27.57,27.43l27.53,27.24-32,.07c-17.59,0-46.34,0-63.92,0l-31.94-.07,95.71-90.37L269,125.94l.07,28.36C269.07,169.89,269.07,195.49,269.05,211.15Z"/></svg>