<?xml version="1.0" encoding="UTF-8"?>
<svg version="1.1" xmlns="http://www.w3.org/2000/svg" width="25" height="25">
<path d="M0 0 C0 0.66 0 1.32 0 2 C-0.680625 2.556875 -1.36125 3.11375 -2.0625 3.6875 C-4.40556654 5.96086678 -4.40556654 5.96086678 -3.875 9.625 C-3.29259286 13.04542055 -3.29259286 13.04542055 -1 15 C3.72890618 15.53636441 3.72890618 15.53636441 7.875 13.625 C9.06481812 11.98821489 9.06481812 11.98821489 10 10 C10.66 10 11.32 10 12 10 C12.66964286 17.76785714 12.66964286 17.76785714 9.625 21.4375 C5.44965629 25.51343077 2.44402701 25.38914187 -3.2265625 25.359375 C-7.52115537 24.80289254 -9.13345993 23.16828113 -12 20 C-13.98141781 16.03716439 -13.55820645 11.30789762 -13 7 C-9.93621335 1.07820341 -6.34001113 -0.13782633 0 0 Z " fill="#A0A0A0" transform="translate(13,0)"/>
</svg>
