<?xml version="1.0" encoding="UTF-8"?>
<svg version="1.1" xmlns="http://www.w3.org/2000/svg" width="25" height="25">
<path d="M0 0 C0.99 0 1.98 0 3 0 C3.33 1.65 3.66 3.3 4 5 C4.66 3.68 5.32 2.36 6 1 C6.99 1 7.98 1 9 1 C8.835 1.61875 8.67 2.2375 8.5 2.875 C7.92365356 4.96063386 7.92365356 4.96063386 8 7 C8.66 6.34 9.32 5.68 10 5 C10.99 5 11.98 5 13 5 C12.6875 6.9375 12.6875 6.9375 12 9 C11.01 9.33 10.02 9.66 9 10 C11.475 10.495 11.475 10.495 14 11 C14 11.99 14 12.98 14 14 C12.35 14 10.7 14 9 14 C8.67 14.66 8.34 15.32 8 16 C9.65 16.33 11.3 16.66 13 17 C13 17.99 13 18.98 13 20 C12.071875 19.7525 12.071875 19.7525 11.125 19.5 C9.03936614 18.92365356 9.03936614 18.92365356 7 19 C7.66 19.66 8.32 20.32 9 21 C9 21.99 9 22.98 9 24 C7.0625 23.6875 7.0625 23.6875 5 23 C4.67 22.01 4.34 21.02 4 20 C3.67 21.65 3.34 23.3 3 25 C2.01 25 1.02 25 0 25 C-0.33 23.35 -0.66 21.7 -1 20 C-1.66 21.32 -2.32 22.64 -3 24 C-3.99 24 -4.98 24 -6 24 C-5.835 23.38125 -5.67 22.7625 -5.5 22.125 C-4.92365356 20.03936614 -4.92365356 20.03936614 -5 18 C-5.66 18.66 -6.32 19.32 -7 20 C-7.99 20 -8.98 20 -10 20 C-9.6875 18.0625 -9.6875 18.0625 -9 16 C-8.01 15.67 -7.02 15.34 -6 15 C-6 13.35 -6 11.7 -6 10 C-7.32 9.34 -8.64 8.68 -10 8 C-10 7.01 -10 6.02 -10 5 C-9.38125 5.165 -8.7625 5.33 -8.125 5.5 C-6.03936614 6.07634644 -6.03936614 6.07634644 -4 6 C-4.66 5.34 -5.32 4.68 -6 4 C-6 3.01 -6 2.02 -6 1 C-4.0625 1.3125 -4.0625 1.3125 -2 2 C-1.67 2.99 -1.34 3.98 -1 5 C-0.67 3.35 -0.34 1.7 0 0 Z M1 8 C-0.32 9.32 -1.64 10.64 -3 12 C-2.01 13.65 -1.02 15.3 0 17 C2.86724686 16.42655063 3.8614515 16.1385485 6 14 C5.98617135 11.94285168 5.98617135 11.94285168 5 10 C3.0162233 8.71563266 3.0162233 8.71563266 1 8 Z " fill="#A0A0A0" transform="translate(11,0)"/>
<path d="M0 0 C1.32 0 2.64 0 4 0 C4 0.99 4 1.98 4 3 C2.68 3 1.36 3 0 3 C0 2.01 0 1.02 0 0 Z " fill="#A0A0A0" transform="translate(0,11)"/>
</svg>
