<svg id="New_Layer" data-name="New Layer" xmlns="http://www.w3.org/2000/svg" xmlns:xlink="http://www.w3.org/1999/xlink" viewBox="0 0 1010.63 341.72"><defs><style>.cls-1,.cls-2{fill-rule:evenodd;}.cls-1{fill:url(#Gradiente_sem_nome_4);}.cls-2{fill:#080405;}</style><linearGradient id="Gradiente_sem_nome_4" x1="38.77" y1="298.36" x2="315.81" y2="40.09" gradientUnits="userSpaceOnUse"><stop offset="0" stop-color="#e5b533"/><stop offset="1" stop-color="#e5912d"/></linearGradient></defs><path class="cls-1" d="M245.56,14c-5.13.71-8.45,2-10.85,4.29a10.08,10.08,0,0,0-3.37,7.91,15.77,15.77,0,0,0,1.85,7.23,29,29,0,0,0,5.22,7.4,26.86,26.86,0,0,1,1.81,2c0,.07-2.64,2.61-5.86,5.67l-5.84,5.55-96.59.12-96.59.12-1.9.55a28.3,28.3,0,0,0-4,1.56A21.46,21.46,0,0,0,18,70l-.66,2.12-.08,117.8c0,82.71,0,118.3.19,119.46a21.29,21.29,0,0,0,6.36,12.2c1.88,1.87,2.49,2.63,2.59,3.22l.12.81,1.71.1a14.87,14.87,0,0,1,3.7.83,22.15,22.15,0,0,0,3.56,1c2.16.35,234.87.35,237,0a22.15,22.15,0,0,0,17.6-15.64l.55-1.78.07-94.45,0-94.46,5.53-5.19c3-2.85,6.22-5.86,7.1-6.72l1.61-1.52,1.83,1.88c6.52,6.69,14.8,8.52,20.71,4.58,3.44-2.3,5.55-6.6,6.17-12.55.14-1.38.24-16.23.24-38.44,0-40.17.09-37.58-1.62-41a12.33,12.33,0,0,0-2.65-3.58,14.45,14.45,0,0,0-6.65-4l-1.78-.52L283.76,14C263.14,13.93,246,14,245.56,14ZM213.29,68.64l-91.94,87.72L30.59,242.91l-.07-26.85c0-14.79,0-38.92,0-53.67l.07-26.79,24,23.7c13.16,13,24,23.73,24.1,23.73s66-62.85,66.13-63.11c0-.1-10.7-10.63-23.85-23.4L94.06,70.4l-3-2.92H214.47Zm64.37,150.19-.07,28.5-26.17-25.27-26.15-25.29-16.92,16L175.14,244.1c-9,8.47-16.28,15.49-16.26,15.59s12.46,12.45,27.57,27.43L214,314.35l-32,.08c-17.59,0-46.34,0-63.92,0l-31.94-.08L181.87,224l95.72-90.35.07,28.35C277.68,177.57,277.68,203.17,277.66,218.83Z"/><path class="cls-2" d="M369.41,121.88a10.82,10.82,0,0,0-6.6,6.7c-.54,1.66-22.23,122-22.23,123.3a7.54,7.54,0,0,0,4.82,6.81l1.37.5h47.5c51.73,0,49.28.05,54.6-1.33a45.74,45.74,0,0,0,21.52-12.81A43.42,43.42,0,0,0,481,227.49c.83-2.7,12.91-69,13.34-73.27a31.33,31.33,0,0,0-4.32-18.69c-4.82-7.64-11.84-12.22-21.21-13.84-1.83-.3-8.12-.35-50.07-.33H370.83Zm79,37.18a2.14,2.14,0,0,1,1,1.05c.38.78.29,1.45-4.84,29.66-4.91,27.12-5.27,28.92-5.86,29.73a5.32,5.32,0,0,1-1.68,1.28c-1,.45-1.86.45-23.3.4l-22.31-.07-.59-.55a2.69,2.69,0,0,1-.71-1.16c-.07-.33,2.2-13.52,5-29.3,4.79-26.48,5.25-28.76,5.81-29.52a5.7,5.7,0,0,1,1.5-1.28c.85-.45,1.52-.45,23.11-.47C439.5,158.83,448,158.92,448.39,159.06Z"/><path class="cls-2" d="M715.7,121.6c-17.25,2.23-33.08,15.94-37.61,32.6-.33,1.16-3.37,17.51-6.78,36.3l-6.22,34.17,0,4a26.83,26.83,0,0,0,1.42,10,29.2,29.2,0,0,0,14.76,17.15,43.43,43.43,0,0,0,8.35,2.8c1.9.41,4.44.43,45.79.43h43.78l2.49-.54a46.47,46.47,0,0,0,23-12.27,43.34,43.34,0,0,0,12-19.46c.34-1.18,3.4-17.46,6.81-36.18,6.08-33.41,6.2-34.12,6.29-37.89a29.07,29.07,0,0,0-8.56-22.52c-4.27-4.27-8.5-6.55-15.21-8.21l-2.14-.52-43.3,0C736.72,121.41,716.55,121.48,715.7,121.6Zm68.54,37.84a1.69,1.69,0,0,1,.74,1.66c0,1.62-10.08,57.07-10.53,57.94a5,5,0,0,1-1.38,1.43l-1,.64-30.2.07c-33.17,0-31.25.14-31.87-1.35-.26-.64.26-3.82,4.84-29.26,2.83-15.7,5.27-28.82,5.39-29.16a5.09,5.09,0,0,1,2.23-2.2c.64-.34,4-.38,30.89-.38h30.16Z"/><path class="cls-2" d="M527.5,122.12a11.11,11.11,0,0,0-6.62,6c-.81,1.83-22.56,122.17-22.45,124.09a7.43,7.43,0,0,0,4.75,6.5c1.35.5,1.64.5,15.56.5,13.27,0,14.31,0,15.66-.45a9.89,9.89,0,0,0,4.72-3c2.31-2.42,2.16-1.94,5.27-19.26l2-10.94,6.19-.14c3.42-.1,10.49-.17,15.76-.17,7.61,0,9.7.07,10.34.33s1.28,1.33,8.24,15.12c8.28,16.39,8.35,16.51,11,17.51s5.41,1.07,23.2.78c13.67-.24,16.63-.33,17.49-.64a6.71,6.71,0,0,0,4.17-8c-.21-.76-3.49-6.81-8-14.67-4.2-7.35-7.76-13.66-7.95-14l-.35-.64,2.08-1.14c11.06-6,19.63-16.51,22.57-27.74.66-2.46,6.33-34,6.69-37a32.92,32.92,0,0,0-1.38-13A29.39,29.39,0,0,0,636.74,123c-4.68-1.4-.53-1.3-56.4-1.37l-51.25-.07Zm83.73,36.61A3.94,3.94,0,0,1,613,162c0,.66-.85,6-1.9,11.76-2.08,11.54-2.16,11.75-4,13.39s-.43,1.54-28.59,1.73c-25,.14-25.46.14-25.37-.31.07-.24,1.28-7,2.73-14.92s2.66-14.71,2.73-15l.12-.53,26,0C610.52,158.23,610.57,158.23,611.23,158.73Z"/><path class="cls-2" d="M863.54,122a11.41,11.41,0,0,0-7.59,7.33c-.12.52-5.18,28.16-11.2,61.45-8.54,47.29-10.92,60.76-10.82,61.74a7.66,7.66,0,0,0,4.29,6l1.21.54,14.45.07c15.78.07,15.66.07,18.22-1.3a12.61,12.61,0,0,0,4.39-4.75c.5-1,1.17-4.32,3-14.45l2.38-13.07,6.19-.14c3.41-.1,18-.17,32.48-.17,29.21,0,28.88,0,34.43-1.56,14.38-4.13,26.38-15.47,31-29.31.76-2.25,1.47-5.76,3.77-18.41,1.54-8.59,3-16.63,3.23-17.87A43.31,43.31,0,0,0,993,146a43.58,43.58,0,0,0-2.59-7.9c-.26-.53-1-1.81-1.7-2.85-4.42-6.76-10.7-10.94-19.65-13l-2.21-.5-51-.07c-44.22-.05-51.18,0-52.29.31Zm83.18,36.77a3.87,3.87,0,0,1,1.74,3.39c0,.74-.86,6-1.88,11.73-2,11.27-2.13,11.6-4,13.21a9.8,9.8,0,0,1-2,1.28c-1.09.5-1.23.5-26.53.57-22.94.05-25.45,0-25.45-.31s5.07-28.8,5.33-30l.12-.53,26,0C946,158.23,946.06,158.23,946.72,158.73Z"/></svg>